<svg width="90" height="90" fill="none" xmlns="http://www.w3.org/2000/svg"><path stroke="#065398" stroke-width="2" d="M30 58h20v20H30zm-20 0h20v20H10zm0-20h20v20H10z"/><path fill="#065398" stroke="#065398" stroke-width="2" d="M10 17h20v20H10z"/><path d="M38 16a2 2 0 012-2h38a2 2 0 012 2v54a2 2 0 01-2 2H40a2 2 0 01-2-2V16z" fill="#F4FAFF" stroke="#065398" stroke-width="2"/><path fill="#065398" d="M44 24h18v3H44zm0 12h18v3H44zm0 12h18v3H44zm0 12h18v3H44z"/><path d="M67 24.677l3.267 2.823 3.733-8" stroke="#065398" stroke-width="2"/></svg>