<svg width="78" height="78" fill="none" xmlns="http://www.w3.org/2000/svg"><path d="M68.25 6.5H9.75C5 6.5 3.25 8 3.25 13v39c0 5 1.75 6.5 6.5 6.5h23.833l-3.25 10.833H15.167V71.5h47.666v-2.167H47.667L44.417 58.5H68.25c4.75 0 6.5-1.5 6.5-6.5V13c0-5-1.75-6.5-6.5-6.5zm4.333 44.417c0 .598-.485 1.083-1.083 1.083h-65a1.083 1.083 0 01-1.083-1.083V12.333c0-1.025.212-1.88 1-2.666.765-.765 1.681-1 2.583-1h60c1.082 0 1.818.235 2.583 1 .7.698 1 1.554 1 2.666v38.584z" fill="#065398"/><path d="M27.467 24.634c0 2.888-2.324 5.217-5.175 5.217-2.852 0-5.175-2.329-5.175-5.217 0-2.888 2.323-5.217 5.175-5.217 2.851 0 5.175 2.33 5.175 5.217zM13.052 41.25c.496-4.706 4.449-8.362 9.24-8.362 4.79 0 8.743 3.656 9.239 8.362H13.052z" stroke="#065398" stroke-width="2"/><path fill="#065398" d="M39 19h4v3h-4zm8 0h19v3H47zm-8 10h4v3h-4zm8 0h19v3H47zm-8 10h4v3h-4zm8 0h19v3H47z"/></svg>