<svg width="68" height="64" fill="none" xmlns="http://www.w3.org/2000/svg"><path d="M1 7.5a2 2 0 012-2h62a2 2 0 012 2v53a2 2 0 01-2 2H3a2 2 0 01-2-2v-53z" stroke="#065398" stroke-width="2"/><path d="M13 11V1m21 10V1m21 10V1" stroke="#065398" stroke-width="2" stroke-linecap="round"/><path stroke="#065398" stroke-width="2" d="M10 21.5h12v12H10zm0 12h12v12H10zm0 12h12v12H10zm12-24h12v12H22zm0 12h12v12H22zm0 12h12v12H22zm12-24h12v12H34zm0 12h12v12H34z"/><path fill="#065398" stroke="#065398" stroke-width="2" d="M34 45.5h12v12H34z"/><path stroke="#065398" stroke-width="2" d="M46 21.5h12v12H46zm0 12h12v12H46z"/><path d="M36 52.176L40 55l4-8" stroke="#F4FAFF" stroke-width="2"/></svg>