<svg width="90" height="90" fill="none" xmlns="http://www.w3.org/2000/svg"><path stroke="#065398" stroke-width="2" d="M56 56h24v24H56z"/><path d="M64 69l4 4 5-10" stroke="#065398" stroke-width="2"/><path fill="#065398" stroke="#065398" stroke-width="2" d="M10 56h24v24H10z"/><path d="M21.5 55.5V29a4 4 0 014-4H34m34 30.5V29a4 4 0 00-4-4h-8" stroke="#065398" stroke-width="2" stroke-linecap="round"/><path d="M22 61v9m0 2.076V75" stroke="#F4FAFF" stroke-width="3"/><path fill-rule="evenodd" clip-rule="evenodd" d="M34.181 39.257l1.636 2.834 2.199-1.27a9.549 9.549 0 003.347 2.57l-.657 2.451 3.161.847.657-2.452a9.55 9.55 0 004.182-.55l1.27 2.2 2.833-1.637-1.269-2.199a9.55 9.55 0 002.568-3.347l2.451.657.848-3.161-2.453-.657a9.549 9.549 0 00-.55-4.183l2.198-1.269-1.636-2.834-2.2 1.27a9.548 9.548 0 00-3.345-2.566l.658-2.454-3.162-.847-.657 2.454a9.549 9.549 0 00-4.181.55l-1.27-2.199-2.834 1.636 1.27 2.2a9.546 9.546 0 00-2.566 3.345l-2.455-.658-.847 3.162 2.454.657a9.55 9.55 0 00.55 4.18l-2.2 1.27zm17.448-8.18a7.2 7.2 0 10-12.471 7.2 7.2 7.2 0 0012.47-7.2z" fill="#065398"/><path fill-rule="evenodd" clip-rule="evenodd" d="M35.039 13.773v2.454h1.904a7.161 7.161 0 001.21 2.922l-1.346 1.347 1.735 1.736 1.347-1.347a7.16 7.16 0 002.922 1.211V24h2.455v-1.904a7.16 7.16 0 002.922-1.211l1.347 1.347 1.735-1.736-1.347-1.347a7.16 7.16 0 001.211-2.922h1.905v-2.454h-1.905a7.16 7.16 0 00-1.21-2.922l1.346-1.347-1.735-1.736-1.347 1.347a7.161 7.161 0 00-2.922-1.21V6H42.81v1.904a7.161 7.161 0 00-2.922 1.211l-1.347-1.347-1.735 1.736 1.347 1.347a7.16 7.16 0 00-1.211 2.922h-1.904zM49.439 15a5.4 5.4 0 10-10.8 0 5.4 5.4 0 0010.8 0z" fill="#065398"/></svg>