<svg width="90" height="90" fill="none" xmlns="http://www.w3.org/2000/svg"><path d="M22.5 31.25v8.25c0 2.5 1.25 3.75 3.75 3.75H33c3 0 3 1.75 3 3.875V53m0 0l-1-2h2l-1 2zm9 0V31.5M45 53l-1-2h2l-1 2zm22.5-21.75v8.25c0 2.5-1.25 3.75-3.75 3.75H57c-3 0-3 1.75-3 3.875V53m0 0l1-2h-2l1 2z" stroke="#065398" stroke-width="2"/><path stroke="#065398" stroke-width="2" d="M13.5 13.5h18v18h-18z"/><path fill="#065398" stroke="#065398" stroke-width="2" d="M30 58h30v18H30z"/><path stroke="#065398" stroke-width="2" d="M36 13.5h18v18H36zm22.5 0h18v18h-18z"/></svg>