<svg width="90" height="90" fill="none" xmlns="http://www.w3.org/2000/svg"><path d="M31 24c0-7.732 6.268-14 14-14s14 6.268 14 14-6.268 14-14 14-14-6.268-14-14z" fill="#065398" stroke="#065398" stroke-width="2"/><path d="M45 15v9l6 4" stroke="#F4FAFF" stroke-width="3"/><path stroke="#065398" stroke-width="2" d="M35 60h20v20H35zM7 60h20v20H7zm56 0h20v20H63zm-46-1v-6a4 4 0 014-4h48a4 4 0 014 4v6m-28 0V38"/><path d="M13 71l4 4 5-10m19 6l4 4 5-10m19 6l4 4 5-10" stroke="#065398" stroke-width="2"/></svg>