<svg width="80" height="88" fill="none" xmlns="http://www.w3.org/2000/svg"><path d="M0 0h80v56.4c0 10.824 0 16.236-2.04 20.399a20 20 0 01-9.16 9.161C64.636 88 59.224 88 48.4 88H0V0z" fill="#065398"/><path d="M19 59.356h6.28c1.668 0 2.949.402 3.843 1.207.894.804 1.34 1.981 1.34 3.53 0 1.148-.305 2.123-.916 2.928-.61.79-1.474 1.326-2.592 1.609l3.442 6.346h-2.37l-3.329-6.167H21.28v6.167H19v-15.62zm5.9 7.53c.998 0 1.787-.23 2.368-.692.596-.477.894-1.177.894-2.1 0-1.013-.29-1.736-.872-2.168-.566-.432-1.363-.648-2.39-.648h-3.62v5.609h3.62zm12.259 8.377c-1.43 0-2.592-.312-3.486-.938-.894-.639-1.34-1.532-1.34-2.682 0-.855.235-1.59.708-2.202.485-.613 1.258-1.22 2.317-1.82-.638-.587-1.104-1.117-1.398-1.59a3.047 3.047 0 01-.44-1.609c0-.944.319-1.698.957-2.26.652-.574 1.514-.862 2.586-.862.677 0 1.277.14 1.8.422.537.268.952.638 1.246 1.11a2.95 2.95 0 01.44 1.59c0 .703-.191 1.303-.575 1.8-.37.499-1.015 1.048-1.934 1.648l3.64 3.448c.23-.37.382-.805.459-1.303.09-.51.134-1.13.134-1.858h1.705c0 .984-.077 1.807-.23 2.471a6.524 6.524 0 01-.805 1.916l2.567 2.432h-2.337l-1.36-1.302a5.298 5.298 0 01-2.01 1.206c-.767.256-1.648.383-2.644.383zm-.307-8.35c.716-.435 1.226-.824 1.533-1.169.306-.358.46-.772.46-1.245 0-.523-.16-.938-.48-1.245-.319-.32-.753-.479-1.302-.479-.562 0-1.002.153-1.322.46-.319.306-.478.728-.478 1.264 0 .409.121.779.364 1.11.242.333.65.767 1.225 1.303zm.326 6.914c.728 0 1.386-.109 1.973-.326a4.098 4.098 0 001.475-.957l-3.984-3.85c-.856.421-1.475.862-1.858 1.321-.383.447-.575.99-.575 1.628 0 .703.275 1.245.824 1.629.562.37 1.277.555 2.145.555zm10.559-14.471h5.028c1.683 0 3.143.313 4.38.939 1.236.625 2.182 1.52 2.838 2.681.67 1.162 1.005 2.533 1.005 4.112 0 2.592-.752 4.559-2.257 5.9-1.49 1.325-3.583 1.988-6.279 1.988h-4.715v-15.62zm4.693 13.72c2.085 0 3.65-.513 4.692-1.541 1.043-1.028 1.565-2.51 1.565-4.447 0-1.788-.514-3.203-1.542-4.246-1.013-1.043-2.466-1.564-4.358-1.564h-2.77v11.799h2.413zM41.681 50.204c-3.813 0-7.184-.75-10.113-2.248-2.928-1.532-5.193-3.694-6.793-6.486-1.6-2.792-2.4-6.078-2.4-9.858 0-3.78.8-7.066 2.4-9.858 1.6-2.826 3.865-4.989 6.793-6.487 2.928-1.532 6.3-2.298 10.113-2.298 2.588 0 4.87.272 6.845.817a17.523 17.523 0 015.516 2.452v7.406c-1.498-1.226-3.218-2.111-5.159-2.656-1.907-.579-4.086-.869-6.538-.869-2.281 0-4.341.477-6.18 1.43a10.515 10.515 0 00-4.29 3.985c-1.056 1.736-1.584 3.762-1.584 6.078 0 2.35.477 4.41 1.43 6.18a10.26 10.26 0 004.138 4.035c1.77.954 3.813 1.43 6.129 1.43 2.111 0 3.95-.374 5.516-1.123v-6.896h-5.772v-5.72h13.28V46.73c-3.37 2.315-7.814 3.473-13.33 3.473z" fill="#fff"/></svg>