<svg width="72" height="72" fill="none" xmlns="http://www.w3.org/2000/svg"><path d="M18 39h13s6.5 0 6.5 5-6.5 5-6.5 5h-7s-6 0-6 5.25C18 59 24 59 24 59h26.5" stroke="#065398" stroke-width="2"/><path fill-rule="evenodd" clip-rule="evenodd" d="M26 19.667c0 1.469-.455 3.192-1.245 5.037-.781 1.826-1.84 3.654-2.924 5.298A54.038 54.038 0 0119 33.887a54.038 54.038 0 01-2.83-3.885c-1.085-1.644-2.144-3.472-2.925-5.298C12.455 22.86 12 21.136 12 19.667 12 16.055 15.062 13 19 13s7 3.055 7 6.667zm2 0c0 5.615-5.2 12.71-7.695 15.79C19.518 36.426 19 37 19 37s-.518-.572-1.305-1.544C15.201 32.376 10 25.282 10 19.666 10 14.88 14.03 11 19 11s9 3.88 9 8.667zM19 24a4 4 0 100-8 4 4 0 000 8zm33 34s10-11.477 10-20c0-5.523-4.477-10-10-10s-10 4.477-10 10c0 8.523 10 20 10 20zm0-15a5 5 0 100-10 5 5 0 000 10z" fill="#065398"/></svg>