<svg width="72" height="72" fill="none" xmlns="http://www.w3.org/2000/svg"><path d="M16.6 43v-2.8a4.8 4.8 0 014.8-4.8h29.2a4.8 4.8 0 014.8 4.8V43M36 35.5V24.8" stroke="#065398" stroke-width="2"/><path fill-rule="evenodd" clip-rule="evenodd" d="M24.335 10.231l-2.268 1.31 1.016 1.758a7.639 7.639 0 00-2.055 2.678l-1.961-.526-.678 2.529 1.962.525a7.639 7.639 0 00.44 3.346l-1.76 1.015 1.31 2.268 1.758-1.016a7.639 7.639 0 002.678 2.054l-.526 1.962 2.53.677.525-1.961a7.64 7.64 0 003.346-.44l1.015 1.758 2.268-1.31-1.016-1.759a7.64 7.64 0 002.053-2.676l1.963.526.677-2.529-1.963-.526a7.638 7.638 0 00-.44-3.345l1.76-1.015-1.31-2.268-1.76 1.016a7.639 7.639 0 00-2.675-2.053l.526-1.963-2.53-.678-.525 1.963a7.64 7.64 0 00-3.344.44l-1.016-1.76zm6.544 13.958a5.76 5.76 0 10-5.76-9.977 5.76 5.76 0 005.76 9.977z" fill="#065398"/><path fill-rule="evenodd" clip-rule="evenodd" d="M44.722 10.917H42.76v1.523a5.73 5.73 0 00-2.338.97l-1.078-1.078-1.388 1.388 1.078 1.078a5.73 5.73 0 00-.97 2.337H36.54V19.1h1.524a5.73 5.73 0 00.969 2.338l-1.078 1.077 1.389 1.389 1.077-1.078a5.73 5.73 0 002.338.969v1.523h1.963v-1.523a5.729 5.729 0 002.338-.969l1.077 1.078 1.389-1.389-1.078-1.078a5.729 5.729 0 00.97-2.337h1.523v-1.964h-1.524a5.728 5.728 0 00-.969-2.337l1.078-1.078-1.389-1.388-1.077 1.077a5.73 5.73 0 00-2.338-.969v-1.523zm-.981 11.52a4.32 4.32 0 100-8.64 4.32 4.32 0 000 8.64z" fill="#065398"/><path d="M45 52h19.5M45 47h19.5M45 57h19.5M45 62h11" stroke="#065398" stroke-width="2"/><path fill="#065398" d="M5 54h8v9H5z"/><path stroke="#065398" stroke-width="2" d="M15 48h6v14h-6zm9-4h6v18h-6z"/></svg>