<svg width="72" height="72" fill="none" xmlns="http://www.w3.org/2000/svg"><path d="M19 34h-4v4h4v-4zm3 0h4v4h-4v-4zm7 0h4v4h-4v-4zm12 0h16v3.765H41V34zM19 16h-4v4h4v-4zm3 0h4v4h-4v-4zm7 0h4v4h-4v-4zm12 0h16v3.765H41V16zM15 52h4v4h-4v-4zm11 0h-4v4h4v-4zm7 0h-4v4h4v-4zm24 0H41v3.765h16V52z" fill="#065398"/><path fill-rule="evenodd" clip-rule="evenodd" d="M10 26h3v2h-3v16h3v2h-3v16h52V46h-3v-2h3V28h-3v-2h3V10H10v16zm50 16V30H12v12h48zm-3 2v2H15v-2h42zm0-18v2H15v-2h42zM12 12v12h48V12H12zm0 48V48h48v12H12z" fill="#065398"/></svg>