<svg width="72" height="72" fill="none" xmlns="http://www.w3.org/2000/svg"><path d="M59.4 10H12.6c-3.8 0-5.2 1.2-5.2 5.2v31.2c0 4 1.4 5.2 5.2 5.2h19.067l-2.6 8.667H16.933V62h38.134v-1.733H42.933l-2.6-8.667H59.4c3.8 0 5.2-1.2 5.2-5.2V15.2c0-4-1.4-5.2-5.2-5.2zm3.467 35.533A.867.867 0 0162 46.4H10a.867.867 0 01-.867-.867V14.667c0-.82.17-1.505.8-2.134.613-.611 1.345-.8 2.067-.8h48c.865 0 1.454.189 2.067.8.56.559.8 1.244.8 2.134v30.866z" fill="#065398"/><path d="M15.467 37.6c.484-3.558 3.513-6.29 7.166-6.29 3.653 0 6.682 2.732 7.166 6.29H15.467zm11.106-13.093c0 2.201-1.77 3.974-3.94 3.974s-3.94-1.773-3.94-3.974c0-2.201 1.77-3.974 3.94-3.974s3.94 1.773 3.94 3.974z" stroke="#065398" stroke-width="2"/><path fill="#065398" d="M36 20h3.2v2.4H36zm6.4 0h15.2v2.4H42.4zM36 28h3.2v2.4H36zm6.4 0h15.2v2.4H42.4zM36 36h3.2v2.4H36zm6.4 0h15.2v2.4H42.4z"/></svg>