<svg width="72" height="72" fill="none" xmlns="http://www.w3.org/2000/svg"><path d="M35 21h1-1zM25 37h10v-2H25v2zm10 0h12v-2H35v2zm0-1h1V21h-2v15h1zm0 0h-1v15h2V36h-1zm1-15c0-.846.21-1.297.457-1.543.246-.246.697-.457 1.543-.457v-2c-1.154 0-2.203.29-2.957 1.043C34.289 18.797 34 19.846 34 21h2zm2-2h8.999L47 18v-1h-9v2zm-4 32c0 1.154.29 2.203 1.043 2.957C35.797 54.711 36.846 55 38 55v-2c-.846 0-1.297-.21-1.543-.457C36.211 52.297 36 51.846 36 51h-2zm4 4h8.999L47 54v-1h-9v2z" fill="#065398"/><path stroke="#065398" stroke-width="2" d="M61 11v14H47V11zm-36 0v50H11V11zm36 18v14H47V29z"/><path fill="#065398" d="M62 46v16H46V46z"/></svg>