<svg width="72" height="72" fill="none" xmlns="http://www.w3.org/2000/svg"><g clip-path="url(#clip0)" fill="#065398"><path d="M29.926 32.45a.968.968 0 000 1.364.968.968 0 001.365 0 6.67 6.67 0 019.421 0 .961.961 0 001.362 0 .968.968 0 000-1.365c-3.348-3.351-8.8-3.351-12.148 0z"/><path d="M32.53 35.054a.968.968 0 000 1.364.968.968 0 001.366 0 2.975 2.975 0 014.208 0 .962.962 0 101.361-1.36 4.904 4.904 0 00-6.934-.004zM36 39.803a1.284 1.284 0 100-2.568 1.284 1.284 0 000 2.568zM44.719 29.8c-4.809-4.804-12.63-4.804-17.438 0a.968.968 0 000 1.365.968.968 0 001.365 0c4.054-4.057 10.654-4.057 14.712 0a.961.961 0 001.36 0 .968.968 0 000-1.364z"/></g><path fill-rule="evenodd" clip-rule="evenodd" d="M21 15a3 3 0 013-3h24a3 3 0 013 3v42a3 3 0 01-3 3H24a3 3 0 01-3-3V15zm2 1a2 2 0 012-2h22a2 2 0 012 2v34a2 2 0 01-2 2H25a2 2 0 01-2-2V16zm13 42a2 2 0 100-4 2 2 0 000 4z" fill="#065398"/><defs><clipPath id="clip0"><path fill="#fff" transform="translate(27 24)" d="M0 0h18v18H0z"/></clipPath></defs></svg>