<svg width="90" height="90" viewBox="0 0 90 90" fill="none" xmlns="http://www.w3.org/2000/svg">
    <rect x="56" y="56" width="24" height="24" stroke="#065398" stroke-width="2"/>
    <path d="M64 69L68 73L73 63" stroke="#065398" stroke-width="2"/>
    <rect x="10" y="56" width="24" height="24" fill="#065398" stroke="#065398" stroke-width="2"/>
    <path d="M21.5 55.5V29C21.5 26.7909 23.2909 25 25.5 25H34" stroke="#065398" stroke-width="2" stroke-linecap="round"/>
    <path d="M68 55.5V29C68 26.7909 66.2091 25 64 25H56" stroke="#065398" stroke-width="2" stroke-linecap="round"/>
    <path d="M22 61V70" stroke="#F4FAFF" stroke-width="3"/>
    <path d="M22 72.0757V75" stroke="#F4FAFF" stroke-width="3"/>
    <path fill-rule="evenodd" clip-rule="evenodd" d="M34.181 39.257L35.8174 42.0913L38.0159 40.8219C38.945 41.9398 40.0949 42.805 41.3629 43.3901L40.7058 45.8424L43.867 46.6894L44.5241 44.2374C45.9145 44.3649 47.3425 44.1908 48.7059 43.6878L49.9751 45.8861L52.8093 44.2497L51.5402 42.0515C52.6578 41.1222 53.5227 39.9723 54.1076 38.7042L56.5594 39.3612L57.4065 36.2L54.9543 35.5429C55.0816 34.1522 54.9072 32.7239 54.4037 31.3604L56.602 30.0913L54.9656 27.257L52.7667 28.5266C51.8377 27.4099 50.6885 26.5457 49.4212 25.9612L50.0787 23.5072L46.9175 22.6602L46.2599 25.1144C44.8698 24.9871 43.4421 25.1613 42.079 25.6643L40.8093 23.4651L37.9751 25.1014L39.2448 27.3008C38.1279 28.2295 37.2634 29.3787 36.6787 30.646L34.2242 29.9883L33.3772 33.1495L35.8313 33.8071C35.7038 35.1969 35.8777 36.6244 36.3802 37.9873L34.181 39.257ZM51.6285 31.0764C49.6403 27.6327 45.2369 26.4528 41.7931 28.441C38.3494 30.4292 37.1695 34.8327 39.1578 38.2764C41.146 41.7201 45.5494 42.9 48.9931 40.9118C52.4369 38.9235 53.6168 34.5201 51.6285 31.0764Z" fill="#065398"/>
    <path fill-rule="evenodd" clip-rule="evenodd" d="M35.0386 13.7729L35.0386 16.2274L36.9427 16.2274C37.1271 17.3015 37.5495 18.2942 38.1536 19.1495L36.8069 20.4963L38.5425 22.2319L39.8893 20.8851C40.7445 21.4892 41.7373 21.9116 42.8114 22.096L42.8114 24L45.2659 24L45.2659 22.0959C46.34 21.9115 47.3327 21.489 48.1879 20.8849L49.5348 22.2318L51.2704 20.4961L49.9235 19.1492C50.5275 18.2941 50.9499 17.3014 51.1343 16.2274L53.0386 16.2274L53.0386 13.7729L51.1343 13.7729C50.9499 12.6988 50.5275 11.7061 49.9234 10.8509L51.2704 9.50396L49.5348 7.76833L48.1878 9.11529C47.3326 8.5112 46.3399 8.08882 45.2659 7.90435L45.2659 6L42.8114 6L42.8114 7.90429C41.7373 8.08872 40.7446 8.51106 39.8894 9.11511L38.5425 7.76821L36.8069 9.50384L38.1537 10.8507C37.5495 11.7059 37.1271 12.6987 36.9427 13.7729L35.0386 13.7729ZM49.4386 14.9999C49.4386 12.0176 47.021 9.5999 44.0386 9.5999C41.0563 9.5999 38.6386 12.0176 38.6386 14.9999C38.6386 17.9822 41.0563 20.3999 44.0386 20.3999C47.021 20.3999 49.4386 17.9822 49.4386 14.9999Z" fill="#065398"/>
</svg>
