<svg width="90" height="90" viewBox="0 0 90 90" fill="none" xmlns="http://www.w3.org/2000/svg">
    <path d="M31 24C31 16.268 37.268 10 45 10C52.732 10 59 16.268 59 24C59 31.732 52.732 38 45 38C37.268 38 31 31.732 31 24Z" fill="#065398" stroke="#065398" stroke-width="2"/>
    <path d="M45 15V24L51 28" stroke="#F4FAFF" stroke-width="3"/>
    <rect x="35" y="60" width="20" height="20" stroke="#065398" stroke-width="2"/>
    <rect x="7" y="60" width="20" height="20" stroke="#065398" stroke-width="2"/>
    <rect x="63" y="60" width="20" height="20" stroke="#065398" stroke-width="2"/>
    <path d="M17 59V53C17 50.7909 18.7909 49 21 49H69C71.2091 49 73 50.7909 73 53V59" stroke="#065398" stroke-width="2"/>
    <path d="M45 59V38" stroke="#065398" stroke-width="2"/>
    <path d="M13 71L17 75L22 65" stroke="#065398" stroke-width="2"/>
    <path d="M41 71L45 75L50 65" stroke="#065398" stroke-width="2"/>
    <path d="M69 71L73 75L78 65" stroke="#065398" stroke-width="2"/>
</svg>
