<svg width="78" height="78" viewBox="0 0 78 78" fill="none" xmlns="http://www.w3.org/2000/svg">
    <path d="M68.25 6.5H9.75C5 6.5 3.25 8 3.25 13V52C3.25 57 5 58.5 9.75 58.5H33.5833L30.3333 69.3333H15.1667V71.5H62.8333V69.3333H47.6667L44.4167 58.5H68.25C73 58.5 74.75 57 74.75 52V13C74.75 8 73 6.5 68.25 6.5ZM72.5833 50.9167C72.5833 51.515 72.0983 52 71.5 52H6.5C5.90169 52 5.41667 51.515 5.41667 50.9167V14C5.41667 14 5.41667 13.359 5.41667 12.3333C5.41667 11.3076 5.62948 10.4524 6.41667 9.66667C7.18233 8.90243 8.0981 8.66667 9 8.66667C9.9019 8.66667 11 8.66667 11 8.66667H67.2083C67.2083 8.66667 68 8.66667 69 8.66667C70.0818 8.66667 70.8177 8.90243 71.5833 9.66667C72.2829 10.3649 72.5833 11.2211 72.5833 12.3333C72.5833 13.5 72.5833 14 72.5833 14V50.9167Z" fill="#065398"/>
    <path d="M27.4667 24.634C27.4667 27.522 25.1433 29.8514 22.2917 29.8514C19.44 29.8514 17.1167 27.522 17.1167 24.634C17.1167 21.7461 19.44 19.4166 22.2917 19.4166C25.1433 19.4166 27.4667 21.7461 27.4667 24.634ZM13.0523 41.25C13.5479 36.5444 17.5009 32.8876 22.2917 32.8876C27.0824 32.8876 31.0355 36.5444 31.531 41.25H13.0523Z" stroke="#065398" stroke-width="2"/>
    <rect x="39" y="19" width="4" height="3" fill="#065398"/>
    <rect x="47" y="19" width="19" height="3" fill="#065398"/>
    <rect x="39" y="29" width="4" height="3" fill="#065398"/>
    <rect x="47" y="29" width="19" height="3" fill="#065398"/>
    <rect x="39" y="39" width="4" height="3" fill="#065398"/>
    <rect x="47" y="39" width="19" height="3" fill="#065398"/>
</svg>
