<svg width="90" height="90" viewBox="0 0 90 90" fill="none" xmlns="http://www.w3.org/2000/svg">
    <path d="M22.5 31.25C22.5 31.25 22.5 37 22.5 39.5C22.5 42 23.75 43.25 26.25 43.25C27.5 43.2506 30.0003 43.25 33.0003 43.25C36.0003 43.25 36.0005 45 36.0003 47.125C36 49.25 36.0003 53 36.0003 53M36.0003 53L35 51H37L36.0003 53Z" stroke="#065398" stroke-width="2"/>
    <path d="M45.0003 53V31.5M45.0003 53L44 51H46L45.0003 53Z" stroke="#065398" stroke-width="2"/>
    <path d="M67.5 31.25C67.5 31.25 67.5 37 67.5 39.5C67.5 42 66.25 43.25 63.75 43.25C62.5 43.2506 59.9997 43.25 56.9997 43.25C53.9997 43.25 53.9995 45 53.9997 47.125C54 49.25 53.9997 53 53.9997 53M53.9997 53L55 51H53L53.9997 53Z" stroke="#065398" stroke-width="2"/>
    <rect x="13.5" y="13.5" width="18" height="18" stroke="#065398" stroke-width="2"/>
    <rect x="30" y="58" width="30" height="18" fill="#065398" stroke="#065398" stroke-width="2"/>
    <rect x="36" y="13.5" width="18" height="18" stroke="#065398" stroke-width="2"/>
    <rect x="58.5" y="13.5" width="18" height="18" stroke="#065398" stroke-width="2"/>
</svg>
