<svg width="68" height="64" viewBox="0 0 68 64" fill="none" xmlns="http://www.w3.org/2000/svg">
    <path d="M1 7.5C1 6.39543 1.89543 5.5 3 5.5H65C66.1046 5.5 67 6.39543 67 7.5V16.5V60.5C67 61.6046 66.1046 62.5 65 62.5H3C1.89543 62.5 1 61.6046 1 60.5V16.5V7.5Z" stroke="#065398" stroke-width="2"/>
    <path d="M13 11V1" stroke="#065398" stroke-width="2" stroke-linecap="round"/>
    <path d="M34 11V1" stroke="#065398" stroke-width="2" stroke-linecap="round"/>
    <path d="M55 11V1" stroke="#065398" stroke-width="2" stroke-linecap="round"/>
    <rect x="10" y="21.5" width="12" height="12" stroke="#065398" stroke-width="2"/>
    <rect x="10" y="33.5" width="12" height="12" stroke="#065398" stroke-width="2"/>
    <rect x="10" y="45.5" width="12" height="12" stroke="#065398" stroke-width="2"/>
    <rect x="22" y="21.5" width="12" height="12" stroke="#065398" stroke-width="2"/>
    <rect x="22" y="33.5" width="12" height="12" stroke="#065398" stroke-width="2"/>
    <rect x="22" y="45.5" width="12" height="12" stroke="#065398" stroke-width="2"/>
    <rect x="34" y="21.5" width="12" height="12" stroke="#065398" stroke-width="2"/>
    <rect x="34" y="33.5" width="12" height="12" stroke="#065398" stroke-width="2"/>
    <rect x="34" y="45.5" width="12" height="12" fill="#065398" stroke="#065398" stroke-width="2"/>
    <rect x="46" y="21.5" width="12" height="12" stroke="#065398" stroke-width="2"/>
    <rect x="46" y="33.5" width="12" height="12" stroke="#065398" stroke-width="2"/>
    <path d="M36 52.1765L40 55L44 47" stroke="#F4FAFF" stroke-width="2"/>
</svg>
