<svg width="90" height="90" viewBox="0 0 90 90" fill="none" xmlns="http://www.w3.org/2000/svg">
    <rect x="30" y="58" width="20" height="20" stroke="#065398" stroke-width="2"/>
    <rect x="10" y="58" width="20" height="20" stroke="#065398" stroke-width="2"/>
    <rect x="10" y="38" width="20" height="20" stroke="#065398" stroke-width="2"/>
    <rect x="10" y="17" width="20" height="20" fill="#065398" stroke="#065398" stroke-width="2"/>
    <path d="M38 16C38 14.8954 38.8954 14 40 14H78C79.1046 14 80 14.8954 80 16V70C80 71.1046 79.1046 72 78 72H40C38.8954 72 38 71.1046 38 70V16Z" fill="#F4FAFF" stroke="#065398" stroke-width="2"/>
    <rect x="44" y="24" width="18" height="3" fill="#065398"/>
    <rect x="44" y="36" width="18" height="3" fill="#065398"/>
    <rect x="44" y="48" width="18" height="3" fill="#065398"/>
    <rect x="44" y="60" width="18" height="3" fill="#065398"/>
    <path d="M67 24.6765L70.2667 27.5L74 19.5" stroke="#065398" stroke-width="2"/>
</svg>
