<svg width="90" height="90" viewBox="0 0 90 90" fill="none" xmlns="http://www.w3.org/2000/svg">
    <path d="M15 46H27V75H15V46ZM31 58H43V75H31V58ZM47 43H59V75H47V43ZM63 32H75V75H63V32Z" stroke="#065398" stroke-width="2"/>
    <path d="M21 32L37 39L69 19" stroke="#065398" stroke-width="2"/>
    <path d="M24 32C24 33.6569 22.6569 35 21 35C19.3431 35 18 33.6569 18 32C18 30.3431 19.3431 29 21 29C22.6569 29 24 30.3431 24 32Z" fill="#065398"/>
    <path d="M40 39C40 40.6569 38.6569 42 37 42C35.3431 42 34 40.6569 34 39C34 37.3431 35.3431 36 37 36C38.6569 36 40 37.3431 40 39Z" fill="#065398"/>
    <path d="M56 29C56 30.6569 54.6569 32 53 32C51.3431 32 50 30.6569 50 29C50 27.3431 51.3431 26 53 26C54.6569 26 56 27.3431 56 29Z" fill="#065398"/>
    <path d="M72 19C72 20.6569 70.6569 22 69 22C67.3431 22 66 20.6569 66 19C66 17.3431 67.3431 16 69 16C70.6569 16 72 17.3431 72 19Z" fill="#065398"/>
</svg>
