<svg width="80" height="88" viewBox="0 0 80 88" fill="none" xmlns="http://www.w3.org/2000/svg">
    <path d="M0 0H80V56.4C80 67.2238 80 72.6357 77.9605 76.7988C76.0079 80.7847 72.7847 84.0079 68.7988 85.9605C64.6357 88 59.2238 88 48.4 88H0V0Z" fill="#065398"/>
    <path d="M19 59.3562H25.2793C26.9478 59.3562 28.229 59.7584 29.1228 60.5629C30.0167 61.3673 30.4636 62.5442 30.4636 64.0936C30.4636 65.2407 30.1582 66.2165 29.5474 67.0209C28.9366 67.8105 28.0725 68.3468 26.9552 68.6298L30.3965 74.9761H28.0278L24.6983 68.8086H21.2793V74.9761H19V59.3562ZM24.8994 66.8868C25.8975 66.8868 26.6871 66.6559 27.2681 66.1941C27.864 65.7174 28.1619 65.0172 28.1619 64.0936C28.1619 63.0805 27.8714 62.358 27.2904 61.926C26.7243 61.494 25.9273 61.278 24.8994 61.278H21.2793V66.8868H24.8994Z" fill="white"/>
    <path d="M37.1589 75.2635C35.7287 75.2635 34.5667 74.9506 33.6729 74.3249C32.779 73.6865 32.3321 72.7926 32.3321 71.6434C32.3321 70.7878 32.5684 70.0536 33.0408 69.4407C33.526 68.8278 34.2986 68.2212 35.3584 67.6211C34.72 67.0337 34.2539 66.5038 33.9602 66.0313C33.6665 65.5461 33.5197 65.0098 33.5197 64.4224C33.5197 63.4775 33.8389 62.7241 34.4774 62.1622C35.1286 61.5876 35.9905 61.3003 37.0631 61.3003C37.7399 61.3003 38.34 61.4408 38.8636 61.7217C39.3999 61.9898 39.8149 62.3601 40.1086 62.8326C40.4023 63.3051 40.5491 63.835 40.5491 64.4224C40.5491 65.1247 40.3576 65.7248 39.9745 66.2228C39.6042 66.7208 38.9594 67.2699 38.04 67.8701L41.6792 71.3178C41.9091 70.9475 42.0623 70.5133 42.1389 70.0153C42.2283 69.5045 42.273 68.8852 42.273 68.1574H43.9777C43.9777 69.1406 43.9011 69.9642 43.7478 70.6282C43.5946 71.2795 43.3264 71.9179 42.9434 72.5436L45.51 74.9761H43.1732L41.8133 73.6737C41.2387 74.2228 40.5683 74.625 39.8021 74.8804C39.036 75.1358 38.1549 75.2635 37.1589 75.2635ZM36.8524 66.9124C37.5675 66.4782 38.0783 66.0888 38.3847 65.744C38.6912 65.3865 38.8444 64.9715 38.8444 64.499C38.8444 63.9755 38.6848 63.5605 38.3656 63.254C38.0464 62.9348 37.6122 62.7751 37.0631 62.7751C36.5013 62.7751 36.0607 62.9284 35.7415 63.2348C35.4223 63.5413 35.2627 63.9627 35.2627 64.499C35.2627 64.9076 35.384 65.2779 35.6266 65.6099C35.8692 65.9419 36.2778 66.3761 36.8524 66.9124ZM37.1781 73.8269C37.9059 73.8269 38.5635 73.7184 39.1509 73.5013C39.7383 73.2715 40.2299 72.9522 40.6257 72.5436L36.6417 68.6937C35.7862 69.1151 35.1669 69.5556 34.7838 70.0153C34.4007 70.4622 34.2092 71.0049 34.2092 71.6434C34.2092 72.3457 34.4837 72.8884 35.0328 73.2715C35.5947 73.6418 36.3097 73.8269 37.1781 73.8269Z" fill="white"/>
    <path d="M47.737 59.3562H52.7649C54.4483 59.3562 55.9083 59.669 57.1447 60.2947C58.3812 60.9204 59.3272 61.8143 59.9827 62.9763C60.6531 64.1383 60.9883 65.5088 60.9883 67.088C60.9883 69.6801 60.236 71.6466 58.7313 72.9873C57.2416 74.3132 55.1485 74.9761 52.452 74.9761H47.737V59.3562ZM52.4297 73.0767C54.5153 73.0767 56.0796 72.5628 57.1224 71.5348C58.1652 70.5069 58.6866 69.0246 58.6866 67.088C58.6866 65.3003 58.1727 63.885 57.1447 62.8422C56.1317 61.7994 54.6792 61.278 52.7872 61.278H50.0163V73.0767H52.4297Z" fill="white"/>
    <path d="M41.6814 50.2038C37.8676 50.2038 34.4965 49.4547 31.5681 47.9565C28.6397 46.4241 26.3753 44.2619 24.7749 41.4697C23.1745 38.6775 22.3743 35.3915 22.3743 31.6118C22.3743 27.8321 23.1745 24.5462 24.7749 21.754C26.3753 18.9277 28.6397 16.7655 31.5681 15.2672C34.4965 13.7349 37.8676 12.9688 41.6814 12.9688C44.2692 12.9688 46.5507 13.2412 48.5257 13.786C50.5347 14.2968 52.3735 15.114 54.042 16.2377V23.6438C52.5437 22.418 50.8241 21.5327 48.8832 20.9878C46.9763 20.409 44.797 20.1195 42.3454 20.1195C40.0639 20.1195 38.0038 20.5962 36.165 21.5497C34.3603 22.4691 32.9302 23.7971 31.8746 25.5337C30.819 27.2703 30.2912 29.2963 30.2912 31.6118C30.2912 33.9614 30.7679 36.0215 31.7213 37.7921C32.7088 39.5288 34.0879 40.8738 35.8586 41.8272C37.6292 42.7807 39.6723 43.2574 41.9878 43.2574C44.099 43.2574 45.9378 42.8828 47.5041 42.1337V35.2383H41.7324V29.5177H55.0124V46.7306C51.6413 49.0461 47.1977 50.2038 41.6814 50.2038Z" fill="white"/>
</svg>
