<svg width="72" height="72" viewBox="0 0 72 72" fill="none" xmlns="http://www.w3.org/2000/svg">
    <path d="M59.3999 10H12.5999C8.7999 10 7.3999 11.2 7.3999 15.2V46.4C7.3999 50.4 8.7999 51.6 12.5999 51.6H31.6666L29.0666 60.2667H16.9332V62H55.0666V60.2667H42.9332L40.3332 51.6H59.3999C63.1999 51.6 64.5999 50.4 64.5999 46.4V15.2C64.5999 11.2 63.1999 10 59.3999 10ZM62.8666 45.5333C62.8666 46.012 62.4785 46.4 61.9999 46.4H9.9999C9.52126 46.4 9.13324 46.012 9.13324 45.5333V16C9.13324 16 9.13324 15.4872 9.13324 14.6667C9.13324 13.8461 9.30349 13.1619 9.93324 12.5333C10.5458 11.9219 11.2784 11.7333 11.9999 11.7333C12.7214 11.7333 13.5999 11.7333 13.5999 11.7333H58.5666C58.5666 11.7333 59.1999 11.7333 59.9999 11.7333C60.8653 11.7333 61.454 11.9219 62.0666 12.5333C62.6262 13.0919 62.8666 13.7769 62.8666 14.6667C62.8666 15.6 62.8666 16 62.8666 16V45.5333Z" fill="#065398"/>
    <path d="M15.4673 37.5999C15.9512 34.0423 18.9804 31.3101 22.6332 31.3101C26.2861 31.3101 29.3152 34.0423 29.7991 37.5999H15.4673ZM26.5732 24.5072C26.5732 26.7084 24.8028 28.4811 22.6332 28.4811C20.4637 28.4811 18.6932 26.7084 18.6932 24.5072C18.6932 22.306 20.4637 20.5333 22.6332 20.5333C24.8028 20.5333 26.5732 22.306 26.5732 24.5072Z" stroke="#065398" stroke-width="2"/>
    <rect x="36" y="20" width="3.2" height="2.4" fill="#065398"/>
    <rect x="42.3999" y="20" width="15.2" height="2.4" fill="#065398"/>
    <rect x="36" y="28" width="3.2" height="2.4" fill="#065398"/>
    <rect x="42.3999" y="28" width="15.2" height="2.4" fill="#065398"/>
    <rect x="36" y="36" width="3.2" height="2.4" fill="#065398"/>
    <rect x="42.3999" y="36" width="15.2" height="2.4" fill="#065398"/>
</svg>
