<svg width="72" height="72" viewBox="0 0 72 72" fill="none" xmlns="http://www.w3.org/2000/svg">
    <path d="M16.5996 43V40.2C16.5996 37.5491 18.7486 35.4 21.3996 35.4H50.5996C53.2506 35.4 55.3996 37.5491 55.3996 40.2V43" stroke="#065398" stroke-width="2"/>
    <path d="M36 35.5001V24.8" stroke="#065398" stroke-width="2"/>
    <path fill-rule="evenodd" clip-rule="evenodd" d="M24.3349 10.231L22.0675 11.5401L23.0829 13.2989C22.1886 14.0422 21.4965 14.962 21.0284 15.9765L19.0665 15.4508L18.3889 17.9798L20.3506 18.5054C20.2486 19.6177 20.3878 20.7602 20.7903 21.8509L19.0316 22.8662L20.3407 25.1336L22.0993 24.1183C22.8427 25.0124 23.7626 25.7043 24.7771 26.1722L24.2515 28.1337L26.7805 28.8113L27.3062 26.8496C28.4187 26.9514 29.5613 26.8119 30.6521 26.4091L31.6675 28.1677L33.9349 26.8587L32.9192 25.0995C33.8125 24.3563 34.5039 23.4369 34.9715 22.4231L36.9347 22.9491L37.6123 20.4201L35.649 19.8941C35.7508 18.782 35.6115 17.6398 35.209 16.5494L36.9684 15.5336L35.6593 13.2662L33.8999 14.282C33.1569 13.3885 32.2375 12.6969 31.2237 12.2291L31.7498 10.2655L29.2209 9.58791L28.6948 11.5512C27.5829 11.4492 26.4409 11.5883 25.3507 11.9903L24.3349 10.231ZM30.8794 24.189C33.6344 22.5984 34.5783 19.0756 32.9877 16.3207C31.3971 13.5657 27.8744 12.6218 25.1194 14.2124C22.3644 15.8029 21.4205 19.3257 23.0111 22.0807C24.6017 24.8356 28.1244 25.7796 30.8794 24.189Z" fill="#065398"/>
    <path fill-rule="evenodd" clip-rule="evenodd" d="M44.7222 10.9171H42.7586V12.4404C41.8993 12.588 41.1051 12.9259 40.4209 13.4092L39.3435 12.3317L37.955 13.7202L39.0325 14.7977C38.5492 15.4819 38.2113 16.2761 38.0637 17.1354H36.5405V19.099H38.0638C38.2114 19.9582 38.5493 20.7524 39.0326 21.4366L37.9551 22.5141L39.3436 23.9026L40.4211 22.825C41.1053 23.3083 41.8994 23.6461 42.7586 23.7937V25.3171H44.7222V23.7937C45.5815 23.6461 46.3756 23.3083 47.0598 22.825L48.1374 23.9026L49.5259 22.5141L48.4483 21.4365C48.9316 20.7524 49.2695 19.9582 49.4171 19.099H50.9405V17.1354H49.4171C49.2696 16.2761 48.9317 15.4819 48.4484 14.7977L49.5259 13.7202L48.1374 12.3317L47.06 13.4092C46.3758 12.9259 45.5815 12.588 44.7222 12.4404V10.9171ZM43.7406 22.4372C46.1265 22.4372 48.0606 20.503 48.0606 18.1172C48.0606 15.7313 46.1265 13.7972 43.7406 13.7972C41.3547 13.7972 39.4206 15.7313 39.4206 18.1172C39.4206 20.503 41.3547 22.4372 43.7406 22.4372Z" fill="#065398"/>
    <path d="M45 52H64.5" stroke="#065398" stroke-width="2"/>
    <path d="M45 47H64.5" stroke="#065398" stroke-width="2"/>
    <path d="M45 57H64.5" stroke="#065398" stroke-width="2"/>
    <path d="M45 62H56" stroke="#065398" stroke-width="2"/>
    <rect x="5" y="54" width="8" height="9" fill="#065398"/>
    <rect x="15" y="48" width="6" height="14" stroke="#065398" stroke-width="2"/>
    <rect x="24" y="44" width="6" height="18" stroke="#065398" stroke-width="2"/>
</svg>
