<svg width="72" height="72" viewBox="0 0 72 72" fill="none" xmlns="http://www.w3.org/2000/svg">
    <path d="M35 21L36 21.0005V21H35ZM25 37.0002H35V35.0002H25V37.0002ZM35 37.0002H47V35.0002H35V37.0002ZM35 36.0002C36 36.0002 36 36.0001 36 36C36 35.9999 36 35.9998 36 35.9995C36 35.9991 36 35.9985 36 35.9976C36 35.9959 36 35.9934 36 35.99C36 35.9833 36 35.9733 36 35.96C36 35.9335 36 35.8941 36 35.8427C36 35.7399 36 35.589 35.9999 35.3967C35.9999 35.0119 35.9999 34.4611 35.9999 33.797C35.9999 32.4689 35.9998 30.6876 35.9998 28.8751C35.9997 25.2498 35.9997 21.5002 36 21.0005L34 20.9995C33.9997 21.4999 33.9997 25.2503 33.9998 28.8751C33.9998 30.6877 33.9999 32.4689 33.9999 33.7971C33.9999 34.4612 33.9999 35.012 33.9999 35.3967C34 35.5891 34 35.74 34 35.8428C34 35.8942 34 35.9335 34 35.9601C34 35.9733 34 35.9834 34 35.9901C34 35.9935 34 35.996 34 35.9977C34 35.9985 34 35.9992 34 35.9996C34 35.9998 34 36 34 36.0001C34 36.0002 34 36.0003 35 36.0002ZM35 36.0002C34 36.0002 34 36.0003 34 36.0004C34 36.0005 34 36.0006 34 36.0008C34 36.001 34 36.0013 34 36.0016C34 36.0018 34 36.0022 34 36.0026C34 36.003 34 36.0034 34 36.0039C34 36.0044 34 36.0049 34 36.0055C34 36.0061 34 36.0068 34 36.0074C34 36.0081 34 36.0089 34 36.0096C34 36.0104 34 36.0113 34 36.0121C34 36.013 34 36.0139 34 36.0149C34 36.0159 34 36.0169 34 36.018C34 36.0191 34 36.0202 34 36.0213C34 36.0225 34 36.0237 34 36.025C34 36.0262 34 36.0275 34 36.0289C34 36.0302 34 36.0316 34 36.0331C34 36.0345 34 36.036 34 36.0376C34 36.0391 34 36.0407 34 36.0423C34 36.044 34 36.0456 34 36.0474C34 36.0491 34 36.0509 34 36.0527C34 36.0545 34 36.0564 34 36.0583C34 36.0602 34 36.0622 34 36.0642C34 36.0662 34 36.0682 34 36.0703C34 36.0724 34 36.0746 34 36.0767C34 36.0789 34 36.0812 34 36.0834C34 36.0857 34 36.088 34 36.0904C34 36.0928 34 36.0952 34 36.0976C34 36.1001 34 36.1026 34 36.1052C34 36.1077 34 36.1103 34 36.1129C34 36.1156 34 36.1182 34 36.121C34 36.1237 34 36.1265 34 36.1293C34 36.1321 34 36.135 34 36.1379C34 36.1408 34 36.1437 34 36.1467C34 36.1497 34 36.1527 34 36.1558C34 36.1589 34 36.162 34 36.1652C34 36.1683 34 36.1715 34 36.1748C34 36.178 34 36.1813 34 36.1847C34 36.188 34 36.1914 34 36.1948C34 36.1983 34 36.2017 34 36.2052C34 36.2087 34 36.2123 34 36.2159C34 36.2195 34 36.2231 34 36.2268C34 36.2305 34 36.2342 34 36.238C34 36.2417 34 36.2456 34 36.2494C34 36.2533 34 36.2571 34 36.2611C34 36.265 34 36.269 34 36.273C34 36.277 34 36.2811 34 36.2852C34 36.2893 34 36.2934 34 36.2976C34 36.3018 34 36.306 34 36.3103C34 36.3146 34 36.3189 34 36.3232C34 36.3276 34 36.3319 34 36.3364C34 36.3408 34 36.3453 34 36.3498C34 36.3543 34 36.3589 34 36.3635C34 36.368 34 36.3727 34 36.3774C34 36.382 34 36.3867 34 36.3915C34 36.3962 34 36.401 34 36.4059C34 36.4107 34 36.4156 34 36.4205C34 36.4254 34 36.4304 34 36.4354C34 36.4404 34 36.4454 34 36.4505C34 36.4555 34 36.4606 34 36.4658C34 36.4709 34 36.4761 34 36.4814C34 36.4866 34 36.4919 34 36.4972C34 36.5025 34 36.5078 34 36.5132C34 36.5186 34 36.524 34 36.5295C34 36.5349 34 36.5404 34 36.546C34 36.5515 34 36.5571 34 36.5627C34 36.5683 34 36.574 34 36.5797C34 36.5854 34 36.5911 34 36.5969C34 36.6026 34 36.6084 34 36.6143C34 36.6201 34 36.626 34 36.6319C34 36.6378 34 36.6438 34 36.6498C34 36.6558 34 36.6618 34 36.6679C34 36.6739 34 36.68 34 36.6862C34 36.6923 34 36.6985 34 36.7047C34 36.7109 34 36.7172 34 36.7235C34 36.7297 34 36.7361 34 36.7424C34 36.7488 34 36.7552 34 36.7616C34 36.7681 34 36.7745 34 36.781C34 36.7875 34 36.7941 34 36.8006C34 36.8072 34 36.8138 34 36.8205C34 36.8271 34 36.8338 34 36.8405C34 36.8473 34 36.854 34 36.8608C34 36.8676 34 36.8744 34 36.8813C34 36.8881 34 36.895 34 36.902C34 36.9089 34 36.9159 34 36.9229C34 36.9299 34 36.9369 34 36.944C34 36.951 34 36.9581 34 36.9653C34 36.9724 34 36.9796 34 36.9868C34 36.994 34 37.0012 34 37.0085C34 37.0158 34 37.0231 34 37.0304C34 37.0378 34 37.0452 34 37.0526C34 37.06 34 37.0674 34 37.0749C34 37.0824 34 37.0899 34 37.0974C34 37.105 34 37.1126 34 37.1202C34 37.1278 34 37.1354 34 37.1431C34 37.1508 34 37.1585 34 37.1662C34 37.174 34 37.1818 34 37.1896C34 37.1974 34 37.2052 34 37.2131C34 37.221 34 37.2289 34 37.2368C34 37.2447 34 37.2527 34 37.2607C34 37.2687 34 37.2768 34 37.2848C34 37.2929 34 37.301 34 37.3091C34 37.3172 34 37.3254 34 37.3336C34 37.3418 34 37.35 34 37.3583C34 37.3665 34 37.3748 34 37.3831C34 37.3915 34 37.3998 34 37.4082C34 37.4166 34 37.425 34 37.4334C34 37.4419 34 37.4503 34 37.4588C34 37.4673 34 37.4759 34 37.4844C34 37.493 34 37.5016 34 37.5102C34 37.5189 34 37.5275 34 37.5362C34 37.5449 34 37.5536 34 37.5623C34 37.5711 34 37.5799 34 37.5887C34 37.5975 34 37.6063 34 37.6152C34 37.624 34 37.6329 34 37.6419C34 37.6508 34 37.6597 34 37.6687C34 37.6777 34 37.6867 34 37.6958C34 37.7048 34 37.7139 34 37.723C34 37.7321 34 37.7412 34 37.7504C34 37.7595 34 37.7687 34 37.7779C34 37.7871 34 37.7964 34 37.8056C34 37.8149 34 37.8242 34 37.8335C34 37.8429 34 37.8522 34 37.8616C34 37.871 34 37.8804 34 37.8898C34 37.8993 34 37.9087 34 37.9182C34 37.9277 34 37.9372 34 37.9468C34 37.9563 34 37.9659 34 37.9755C34 37.9851 34 37.9948 34 38.0044C34 38.0141 34 38.0238 34 38.0335C34 38.0432 34 38.0529 34 38.0627C34 38.0725 34 38.0822 34 38.0921C34 38.1019 34 38.1117 34 38.1216C34 38.1315 34 38.1414 34 38.1513C34 38.1612 34 38.1712 34 38.1811C34 38.1911 34 38.2011 34 38.2111C34 38.2212 34 38.2312 34 38.2413C34 38.2514 34 38.2615 34 38.2716C34 38.2818 34 38.2919 34 38.3021C34 38.3123 34 38.3225 34 38.3327C34 38.3429 34 38.3532 34 38.3635C34 38.3738 34 38.3841 34 38.3944C34 38.4047 34 38.4151 34 38.4255C34 38.4359 34 38.4463 34 38.4567C34 38.4671 34 38.4776 34 38.488C34 38.4985 34 38.509 34 38.5196C34 38.5301 34 38.5406 34 38.5512C34 38.5618 34 38.5724 34 38.583C34 38.5936 34 38.6043 34 38.6149C34 38.6256 34 38.6363 34 38.647C34 38.6577 34 38.6685 34 38.6792C34 38.69 34 38.7008 34 38.7116C34 38.7224 34 38.7332 34 38.7441C34 38.7549 34 38.7658 34 38.7767C34 38.7876 34 38.7985 34 38.8095C34 38.8204 34 38.8314 34 38.8424C34 38.8534 34 38.8644 34 38.8754C34 38.8864 34 38.8975 34 38.9086C34 38.9196 34 38.9307 34 38.9419C34 38.953 34 38.9641 34 38.9753C34 38.9865 34 38.9976 34 39.0088C34 39.0201 34 39.0313 34 39.0425C34 39.0538 34 39.0651 34 39.0763C34 39.0876 34 39.0989 34 39.1103C34 39.1216 34 39.133 34 39.1443C34 39.1557 34 39.1671 34 39.1785C34 39.1899 34 39.2014 34 39.2128C34 39.2243 34 39.2358 34 39.2473C34 39.2588 34 39.2703 34 39.2818C34 39.2934 34 39.3049 34 39.3165C34 39.3281 34 39.3397 34 39.3513C34 39.3629 34 39.3745 34 39.3862C34 39.3978 34 39.4095 34 39.4212C34 39.4329 34 39.4446 34 39.4563C34 39.4681 34 39.4798 34 39.4916C34 39.5034 34 39.5151 34 39.5269C34 39.5388 34 39.5506 34 39.5624C34 39.5743 34 39.5861 34 39.598C34 39.6099 34 39.6218 34 39.6337C34 39.6456 34 39.6576 34 39.6695C34 39.6815 34 39.6934 34 39.7054C34 39.7174 34 39.7294 34 39.7414C34 39.7535 34 39.7655 34 39.7776C34 39.7896 34 39.8017 34 39.8138C34 39.8259 34 39.838 34 39.8501C34 39.8623 34 39.8744 34 39.8866C34 39.8987 34 39.9109 34 39.9231C34 39.9353 34 39.9475 34 39.9597C34 39.972 34 39.9842 34 39.9965C34 40.0087 34 40.021 34 40.0333C34 40.0456 34 40.0579 34 40.0702C34 40.0826 34 40.0949 34 40.1073C34 40.1196 34 40.132 34 40.1444C34 40.1568 34 40.1692 34 40.1816C34 40.194 34 40.2065 34 40.2189C34 40.2314 34 40.2438 34 40.2563C34 40.2688 34 40.2813 34 40.2938C34 40.3063 34 40.3188 34 40.3314C34 40.3439 34 40.3565 34 40.369C34 40.3816 34 40.3942 34 40.4068C34 40.4194 34 40.432 34 40.4446C34 40.4573 34 40.4699 34 40.4826C34 40.4952 34 40.5079 34 40.5206C34 40.5332 34 40.5459 34 40.5587C34 40.5714 34 40.5841 34 40.5968C34 40.6096 34 40.6223 34 40.6351C34 40.6479 34 40.6606 34 40.6734C34 40.6862 34 40.699 34 40.7118C34 40.7247 34 40.7375 34 40.7503C34 40.7632 34 40.776 34 40.7889C34 40.8018 34 40.8146 34 40.8275C34 40.8404 34 40.8533 34 40.8663C34 40.8792 34 40.8921 34 40.905C34 40.918 34 40.9309 34 40.9439C34 40.9569 34 40.9699 34 40.9828C34 40.9958 34 41.0088 34 41.0218C34 41.0349 34 41.0479 34 41.0609C34 41.074 34 41.087 34 41.1001C34 41.1131 34 41.1262 34 41.1393C34 41.1523 34 41.1654 34 41.1785C34 41.1916 34 41.2048 34 41.2179C34 41.231 34 41.2441 34 41.2573C34 41.2704 34 41.2836 34 41.2967C34 41.3099 34 41.3231 34 41.3363C34 41.3495 34 41.3627 34 41.3759C34 41.3891 34 41.4023 34 41.4155C34 41.4287 34 41.442 34 41.4552C34 41.4685 34 41.4817 34 41.495C34 41.5082 34 41.5215 34 41.5348C34 41.5481 34 41.5614 34 41.5747C34 41.588 34 41.6013 34 41.6146C34 41.6279 34 41.6412 34 41.6546C34 41.6679 34 41.6813 34 41.6946C34 41.708 34 41.7213 34 41.7347C34 41.7481 34 41.7614 34 41.7748C34 41.7882 34 41.8016 34 41.815C34 41.8284 34 41.8418 34 41.8552C34 41.8686 34 41.8821 34 41.8955C34 41.9089 34 41.9224 34 41.9358C34 41.9493 34 41.9627 34 41.9762C34 41.9897 34 42.0031 34 42.0166C34 42.0301 34 42.0436 34 42.057C34 42.0705 34 42.084 34 42.0975C34 42.111 34 42.1246 34 42.1381C34 42.1516 34 42.1651 34 42.1786C34 42.1922 34 42.2057 34 42.2192C34 42.2328 34 42.2463 34 42.2599C34 42.2734 34 42.287 34 42.3006C34 42.3141 34 42.3277 34 42.3413C34 42.3549 34 42.3684 34 42.382C34 42.3956 34 42.4092 34 42.4228C34 42.4364 34 42.45 34 42.4636C34 42.4772 34 42.4909 34 42.5045C34 42.5181 34 42.5317 34 42.5453C34 42.559 34 42.5726 34 42.5863C34 42.5999 34 42.6135 34 42.6272C34 42.6408 34 42.6545 34 42.6681C34 42.6818 34 42.6954 34 42.7091C34 42.7228 34 42.7364 34 42.7501C34 42.7638 34 42.7775 34 42.7911C34 42.8048 34 42.8185 34 42.8322C34 42.8459 34 42.8596 34 42.8733C34 42.887 34 42.9006 34 42.9143C34 42.928 34 42.9417 34 42.9555C34 42.9692 34 42.9829 34 42.9966C34 43.0103 34 43.024 34 43.0377C34 43.0514 34 43.0652 34 43.0789C34 43.0926 34 43.1063 34 43.12C34 43.1338 34 43.1475 34 43.1612C34 43.175 34 43.1887 34 43.2024C34 43.2162 34 43.2299 34 43.2436C34 43.2574 34 43.2711 34 43.2849C34 43.2986 34 43.3123 34 43.3261C34 43.3398 34 43.3536 34 43.3673C34 43.3811 34 43.3948 34 43.4086C34 43.4223 34 43.4361 34 43.4498C34 43.4635 34 43.4773 34 43.4911C34 43.5048 34 43.5186 34 43.5323C34 43.5461 34 43.5598 34 43.5736C34 43.5873 34 43.6011 34 43.6148C34 43.6286 34 43.6423 34 43.6561C34 43.6698 34 43.6836 34 43.6973C34 43.7111 34 43.7248 34 43.7386C34 43.7523 34 43.7661 34 43.7799C34 43.7936 34 43.8074 34 43.8211C34 43.8348 34 43.8486 34 43.8623C34 43.8761 34 43.8898 34 43.9036C34 43.9173 34 43.9311 34 43.9448C34 43.9586 34 43.9723 34 43.986C34 43.9998 34 44.0135 34 44.0273C34 44.041 34 44.0547 34 44.0685C34 44.0822 34 44.0959 34 44.1096C34 44.1234 34 44.1371 34 44.1508C34 44.1646 34 44.1783 34 44.192C34 44.2057 34 44.2194 34 44.2331C34 44.2469 34 44.2606 34 44.2743C34 44.288 34 44.3017 34 44.3154C34 44.3291 34 44.3428 34 44.3565C34 44.3702 34 44.3839 34 44.3976C34 44.4113 34 44.425 34 44.4386C34 44.4523 34 44.466 34 44.4797C34 44.4934 34 44.507 34 44.5207C34 44.5344 34 44.548 34 44.5617C34 44.5754 34 44.589 34 44.6027C34 44.6163 34 44.63 34 44.6436C34 44.6573 34 44.6709 34 44.6845C34 44.6982 34 44.7118 34 44.7254C34 44.7391 34 44.7527 34 44.7663C34 44.7799 34 44.7935 34 44.8071C34 44.8207 34 44.8343 34 44.8479C34 44.8615 34 44.8751 34 44.8887C34 44.9023 34 44.9159 34 44.9294C34 44.943 34 44.9566 34 44.9701C34 44.9837 34 44.9973 34 45.0108C34 45.0244 34 45.0379 34 45.0514C34 45.065 34 45.0785 34 45.092C34 45.1056 34 45.1191 34 45.1326C34 45.1461 34 45.1596 34 45.1731C34 45.1866 34 45.2001 34 45.2136C34 45.2271 34 45.2406 34 45.254C34 45.2675 34 45.281 34 45.2944C34 45.3079 34 45.3213 34 45.3348C34 45.3482 34 45.3617 34 45.3751C34 45.3885 34 45.4019 34 45.4153C34 45.4287 34 45.4422 34 45.4555C34 45.4689 34 45.4823 34 45.4957C34 45.5091 34 45.5225 34 45.5358C34 45.5492 34 45.5625 34 45.5759C34 45.5892 34 45.6026 34 45.6159C34 45.6292 34 45.6426 34 45.6559C34 45.6692 34 45.6825 34 45.6958C34 45.7091 34 45.7224 34 45.7356C34 45.7489 34 45.7622 34 45.7754C34 45.7887 34 45.8019 34 45.8152C34 45.8284 34 45.8416 34 45.8549C34 45.8681 34 45.8813 34 45.8945C34 45.9077 34 45.9209 34 45.9341C34 45.9472 34 45.9604 34 45.9736C34 45.9867 34 45.9999 34 46.013C34 46.0261 34 46.0393 34 46.0524C34 46.0655 34 46.0786 34 46.0917C34 46.1048 34 46.1179 34 46.131C34 46.144 34 46.1571 34 46.1701C34 46.1832 34 46.1962 34 46.2093C34 46.2223 34 46.2353 34 46.2483C34 46.2613 34 46.2743 34 46.2873C34 46.3003 34 46.3132 34 46.3262C34 46.3392 34 46.3521 34 46.365C34 46.378 34 46.3909 34 46.4038C34 46.4167 34 46.4296 34 46.4425C34 46.4554 34 46.4683 34 46.4811C34 46.494 34 46.5068 34 46.5197C34 46.5325 34 46.5453 34 46.5581C34 46.5709 34 46.5837 34 46.5965C34 46.6093 34 46.6221 34 46.6348C34 46.6476 34 46.6603 34 46.6731C34 46.6858 34 46.6985 34 46.7112C34 46.7239 34 46.7366 34 46.7493C34 46.7619 34 46.7746 34 46.7872C34 46.7999 34 46.8125 34 46.8251C34 46.8378 34 46.8504 34 46.863C34 46.8755 34 46.8881 34 46.9007C34 46.9132 34 46.9258 34 46.9383C34 46.9508 34 46.9634 34 46.9759C34 46.9884 34 47.0009 34 47.0133C34 47.0258 34 47.0383 34 47.0507C34 47.0631 34 47.0756 34 47.088C34 47.1004 34 47.1128 34 47.1252C34 47.1375 34 47.1499 34 47.1622C34 47.1746 34 47.1869 34 47.1992C34 47.2116 34 47.2239 34 47.2361C34 47.2484 34 47.2607 34 47.2729C34 47.2852 34 47.2974 34 47.3096C34 47.3219 34 47.3341 34 47.3462C34 47.3584 34 47.3706 34 47.3827C34 47.3949 34 47.407 34 47.4191C34 47.4313 34 47.4434 34 47.4554C34 47.4675 34 47.4796 34 47.4916C34 47.5037 34 47.5157 34 47.5277C34 47.5397 34 47.5517 34 47.5637C34 47.5757 34 47.5876 34 47.5996C34 47.6115 34 47.6235 34 47.6354C34 47.6473 34 47.6591 34 47.671C34 47.6829 34 47.6947 34 47.7066C34 47.7184 34 47.7302 34 47.742C34 47.7538 34 47.7656 34 47.7773C34 47.7891 34 47.8008 34 47.8125C34 47.8243 34 47.836 34 47.8476C34 47.8593 34 47.871 34 47.8826C34 47.8943 34 47.9059 34 47.9175C34 47.9291 34 47.9407 34 47.9522C34 47.9638 34 47.9753 34 47.9869C34 47.9984 34 48.0099 34 48.0214C34 48.0329 34 48.0443 34 48.0558C34 48.0672 34 48.0786 34 48.09C34 48.1014 34 48.1128 34 48.1242C34 48.1355 34 48.1469 34 48.1582C34 48.1695 34 48.1808 34 48.1921C34 48.2034 34 48.2146 34 48.2259C34 48.2371 34 48.2483 34 48.2595C34 48.2707 34 48.2819 34 48.293C34 48.3042 34 48.3153 34 48.3264C34 48.3375 34 48.3486 34 48.3597C34 48.3707 34 48.3818 34 48.3928C34 48.4038 34 48.4148 34 48.4258C34 48.4367 34 48.4477 34 48.4586C34 48.4695 34 48.4805 34 48.4913C34 48.5022 34 48.5131 34 48.5239C34 48.5348 34 48.5456 34 48.5564C34 48.5672 34 48.5779 34 48.5887C34 48.5994 34 48.6102 34 48.6209C34 48.6316 34 48.6422 34 48.6529C34 48.6635 34 48.6742 34 48.6848C34 48.6954 34 48.706 34 48.7165C34 48.7271 34 48.7376 34 48.7481C34 48.7586 34 48.7691 34 48.7796C34 48.79 34 48.8005 34 48.8109C34 48.8213 34 48.8317 34 48.8421C34 48.8524 34 48.8628 34 48.8731C34 48.8834 34 48.8937 34 48.9039C34 48.9142 34 48.9245 34 48.9347C34 48.9449 34 48.9551 34 48.9652C34 48.9754 34 48.9855 34 48.9957C34 49.0058 34 49.0159 34 49.0259C34 49.036 34 49.046 34 49.056C34 49.066 34 49.076 34 49.086C34 49.0959 34 49.1059 34 49.1158C34 49.1257 34 49.1356 34 49.1454C34 49.1553 34 49.1651 34 49.1749C34 49.1847 34 49.1945 34 49.2042C34 49.214 34 49.2237 34 49.2334C34 49.2431 34 49.2528 34 49.2624C34 49.272 34 49.2816 34 49.2912C34 49.3008 34 49.3104 34 49.3199C34 49.3294 34 49.3389 34 49.3484C34 49.3579 34 49.3673 34 49.3768C34 49.3862 34 49.3956 34 49.4049C34 49.4143 34 49.4236 34 49.4329C34 49.4422 34 49.4515 34 49.4608C34 49.47 34 49.4793 34 49.4884C34 49.4976 34 49.5068 34 49.5159C34 49.5251 34 49.5342 34 49.5433C34 49.5524 34 49.5614 34 49.5704C34 49.5794 34 49.5884 34 49.5974C34 49.6064 34 49.6153 34 49.6242C34 49.6331 34 49.642 34 49.6508C34 49.6597 34 49.6685 34 49.6773C34 49.6861 34 49.6948 34 49.7035C34 49.7123 34 49.721 34 49.7296C34 49.7383 34 49.7469 34 49.7555C34 49.7641 34 49.7727 34 49.7813C34 49.7898 34 49.7983 34 49.8068C34 49.8153 34 49.8237 34 49.8322C34 49.8406 34 49.849 34 49.8573C34 49.8657 34 49.874 34 49.8823C34 49.8906 34 49.8989 34 49.9071C34 49.9154 34 49.9236 34 49.9317C34 49.9399 34 49.9481 34 49.9562C34 49.9643 34 49.9723 34 49.9804C34 49.9884 34 49.9965 34 50.0044C34 50.0124 34 50.0204 34 50.0283C34 50.0362 34 50.0441 34 50.0519C34 50.0598 34 50.0676 34 50.0754C34 50.0832 34 50.0909 34 50.0987C34 50.1064 34 50.1141 34 50.1217C34 50.1294 34 50.137 34 50.1446C34 50.1522 34 50.1597 34 50.1673C34 50.1748 34 50.1823 34 50.1897C34 50.1972 34 50.2046 34 50.212C34 50.2194 34 50.2267 34 50.234C34 50.2414 34 50.2487 34 50.2559C34 50.2632 34 50.2704 34 50.2776C34 50.2847 34 50.2919 34 50.299C34 50.3061 34 50.3132 34 50.3203C34 50.3273 34 50.3343 34 50.3413C34 50.3483 34 50.3552 34 50.3621C34 50.369 34 50.3759 34 50.3827C34 50.3896 34 50.3964 34 50.4031C34 50.4099 34 50.4166 34 50.4233C34 50.43 34 50.4367 34 50.4433C34 50.4499 34 50.4565 34 50.4631C34 50.4696 34 50.4762 34 50.4826C34 50.4891 34 50.4956 34 50.502C34 50.5084 34 50.5147 34 50.5211C34 50.5274 34 50.5337 34 50.54C34 50.5462 34 50.5525 34 50.5587C34 50.5648 34 50.571 34 50.5771C34 50.5832 34 50.5893 34 50.5954C34 50.6014 34 50.6074 34 50.6134C34 50.6193 34 50.6253 34 50.6312C34 50.6371 34 50.6429 34 50.6487C34 50.6545 34 50.6603 34 50.6661C34 50.6718 34 50.6775 34 50.6832C34 50.6888 34 50.6945 34 50.7001C34 50.7056 34 50.7112 34 50.7167C34 50.7222 34 50.7277 34 50.7331C34 50.7386 34 50.744 34 50.7493C34 50.7547 34 50.76 34 50.7653C34 50.7706 34 50.7758 34 50.781C34 50.7862 34 50.7914 34 50.7965C34 50.8016 34 50.8067 34 50.8118C34 50.8168 34 50.8218 34 50.8268C34 50.8317 34 50.8367 34 50.8416C34 50.8465 34 50.8513 34 50.8561C34 50.8609 34 50.8657 34 50.8704C34 50.8751 34 50.8798 34 50.8845C34 50.8891 34 50.8937 34 50.8983C34 50.9029 34 50.9074 34 50.9119C34 50.9164 34 50.9208 34 50.9252C34 50.9296 34 50.934 34 50.9383C34 50.9426 34 50.9469 34 50.9511C34 50.9554 34 50.9596 34 50.9637C34 50.9679 34 50.972 34 50.9761C34 50.9801 34 50.9842 34 50.9882C34 50.9922 34 50.9961 34 51H36C36 50.9961 36 50.9922 36 50.9882C36 50.9842 36 50.9801 36 50.9761C36 50.972 36 50.9679 36 50.9637C36 50.9596 36 50.9554 36 50.9511C36 50.9469 36 50.9426 36 50.9383C36 50.934 36 50.9296 36 50.9252C36 50.9208 36 50.9164 36 50.9119C36 50.9074 36 50.9029 36 50.8983C36 50.8937 36 50.8891 36 50.8845C36 50.8798 36 50.8751 36 50.8704C36 50.8657 36 50.8609 36 50.8561C36 50.8513 36 50.8465 36 50.8416C36 50.8367 36 50.8317 36 50.8268C36 50.8218 36 50.8168 36 50.8118C36 50.8067 36 50.8016 36 50.7965C36 50.7914 36 50.7862 36 50.781C36 50.7758 36 50.7706 36 50.7653C36 50.76 36 50.7547 36 50.7493C36 50.744 36 50.7386 36 50.7331C36 50.7277 36 50.7222 36 50.7167C36 50.7112 36 50.7056 36 50.7001C36 50.6945 36 50.6888 36 50.6832C36 50.6775 36 50.6718 36 50.6661C36 50.6603 36 50.6545 36 50.6487C36 50.6429 36 50.6371 36 50.6312C36 50.6253 36 50.6193 36 50.6134C36 50.6074 36 50.6014 36 50.5954C36 50.5893 36 50.5832 36 50.5771C36 50.571 36 50.5648 36 50.5587C36 50.5525 36 50.5462 36 50.54C36 50.5337 36 50.5274 36 50.5211C36 50.5147 36 50.5084 36 50.502C36 50.4956 36 50.4891 36 50.4826C36 50.4762 36 50.4696 36 50.4631C36 50.4565 36 50.4499 36 50.4433C36 50.4367 36 50.43 36 50.4233C36 50.4166 36 50.4099 36 50.4031C36 50.3964 36 50.3896 36 50.3827C36 50.3759 36 50.369 36 50.3621C36 50.3552 36 50.3483 36 50.3413C36 50.3343 36 50.3273 36 50.3203C36 50.3132 36 50.3061 36 50.299C36 50.2919 36 50.2847 36 50.2776C36 50.2704 36 50.2632 36 50.2559C36 50.2487 36 50.2414 36 50.234C36 50.2267 36 50.2194 36 50.212C36 50.2046 36 50.1972 36 50.1897C36 50.1823 36 50.1748 36 50.1673C36 50.1597 36 50.1522 36 50.1446C36 50.137 36 50.1294 36 50.1217C36 50.1141 36 50.1064 36 50.0987C36 50.0909 36 50.0832 36 50.0754C36 50.0676 36 50.0598 36 50.0519C36 50.0441 36 50.0362 36 50.0283C36 50.0204 36 50.0124 36 50.0044C36 49.9965 36 49.9884 36 49.9804C36 49.9723 36 49.9643 36 49.9562C36 49.9481 36 49.9399 36 49.9317C36 49.9236 36 49.9154 36 49.9071C36 49.8989 36 49.8906 36 49.8823C36 49.874 36 49.8657 36 49.8573C36 49.849 36 49.8406 36 49.8322C36 49.8237 36 49.8153 36 49.8068C36 49.7983 36 49.7898 36 49.7813C36 49.7727 36 49.7641 36 49.7555C36 49.7469 36 49.7383 36 49.7296C36 49.721 36 49.7123 36 49.7035C36 49.6948 36 49.6861 36 49.6773C36 49.6685 36 49.6597 36 49.6508C36 49.642 36 49.6331 36 49.6242C36 49.6153 36 49.6064 36 49.5974C36 49.5884 36 49.5794 36 49.5704C36 49.5614 36 49.5524 36 49.5433C36 49.5342 36 49.5251 36 49.5159C36 49.5068 36 49.4976 36 49.4884C36 49.4793 36 49.47 36 49.4608C36 49.4515 36 49.4422 36 49.4329C36 49.4236 36 49.4143 36 49.4049C36 49.3956 36 49.3862 36 49.3768C36 49.3673 36 49.3579 36 49.3484C36 49.3389 36 49.3294 36 49.3199C36 49.3104 36 49.3008 36 49.2912C36 49.2816 36 49.272 36 49.2624C36 49.2528 36 49.2431 36 49.2334C36 49.2237 36 49.214 36 49.2042C36 49.1945 36 49.1847 36 49.1749C36 49.1651 36 49.1553 36 49.1454C36 49.1356 36 49.1257 36 49.1158C36 49.1059 36 49.0959 36 49.086C36 49.076 36 49.066 36 49.056C36 49.046 36 49.036 36 49.0259C36 49.0159 36 49.0058 36 48.9957C36 48.9855 36 48.9754 36 48.9652C36 48.9551 36 48.9449 36 48.9347C36 48.9245 36 48.9142 36 48.9039C36 48.8937 36 48.8834 36 48.8731C36 48.8628 36 48.8524 36 48.8421C36 48.8317 36 48.8213 36 48.8109C36 48.8005 36 48.79 36 48.7796C36 48.7691 36 48.7586 36 48.7481C36 48.7376 36 48.7271 36 48.7165C36 48.706 36 48.6954 36 48.6848C36 48.6742 36 48.6635 36 48.6529C36 48.6422 36 48.6316 36 48.6209C36 48.6102 36 48.5994 36 48.5887C36 48.5779 36 48.5672 36 48.5564C36 48.5456 36 48.5348 36 48.5239C36 48.5131 36 48.5022 36 48.4913C36 48.4805 36 48.4695 36 48.4586C36 48.4477 36 48.4367 36 48.4258C36 48.4148 36 48.4038 36 48.3928C36 48.3818 36 48.3707 36 48.3597C36 48.3486 36 48.3375 36 48.3264C36 48.3153 36 48.3042 36 48.293C36 48.2819 36 48.2707 36 48.2595C36 48.2483 36 48.2371 36 48.2259C36 48.2146 36 48.2034 36 48.1921C36 48.1808 36 48.1695 36 48.1582C36 48.1469 36 48.1355 36 48.1242C36 48.1128 36 48.1014 36 48.09C36 48.0786 36 48.0672 36 48.0558C36 48.0443 36 48.0329 36 48.0214C36 48.0099 36 47.9984 36 47.9869C36 47.9753 36 47.9638 36 47.9522C36 47.9407 36 47.9291 36 47.9175C36 47.9059 36 47.8943 36 47.8826C36 47.871 36 47.8593 36 47.8476C36 47.836 36 47.8243 36 47.8125C36 47.8008 36 47.7891 36 47.7773C36 47.7656 36 47.7538 36 47.742C36 47.7302 36 47.7184 36 47.7066C36 47.6947 36 47.6829 36 47.671C36 47.6591 36 47.6473 36 47.6354C36 47.6235 36 47.6115 36 47.5996C36 47.5876 36 47.5757 36 47.5637C36 47.5517 36 47.5397 36 47.5277C36 47.5157 36 47.5037 36 47.4916C36 47.4796 36 47.4675 36 47.4554C36 47.4434 36 47.4313 36 47.4191C36 47.407 36 47.3949 36 47.3827C36 47.3706 36 47.3584 36 47.3462C36 47.3341 36 47.3219 36 47.3096C36 47.2974 36 47.2852 36 47.2729C36 47.2607 36 47.2484 36 47.2361C36 47.2239 36 47.2116 36 47.1992C36 47.1869 36 47.1746 36 47.1622C36 47.1499 36 47.1375 36 47.1252C36 47.1128 36 47.1004 36 47.088C36 47.0756 36 47.0631 36 47.0507C36 47.0383 36 47.0258 36 47.0133C36 47.0009 36 46.9884 36 46.9759C36 46.9634 36 46.9508 36 46.9383C36 46.9258 36 46.9132 36 46.9007C36 46.8881 36 46.8755 36 46.863C36 46.8504 36 46.8378 36 46.8251C36 46.8125 36 46.7999 36 46.7872C36 46.7746 36 46.7619 36 46.7493C36 46.7366 36 46.7239 36 46.7112C36 46.6985 36 46.6858 36 46.6731C36 46.6603 36 46.6476 36 46.6348C36 46.6221 36 46.6093 36 46.5965C36 46.5837 36 46.5709 36 46.5581C36 46.5453 36 46.5325 36 46.5197C36 46.5068 36 46.494 36 46.4811C36 46.4683 36 46.4554 36 46.4425C36 46.4296 36 46.4167 36 46.4038C36 46.3909 36 46.378 36 46.365C36 46.3521 36 46.3392 36 46.3262C36 46.3132 36 46.3003 36 46.2873C36 46.2743 36 46.2613 36 46.2483C36 46.2353 36 46.2223 36 46.2093C36 46.1962 36 46.1832 36 46.1701C36 46.1571 36 46.144 36 46.131C36 46.1179 36 46.1048 36 46.0917C36 46.0786 36 46.0655 36 46.0524C36 46.0393 36 46.0261 36 46.013C36 45.9999 36 45.9867 36 45.9736C36 45.9604 36 45.9472 36 45.9341C36 45.9209 36 45.9077 36 45.8945C36 45.8813 36 45.8681 36 45.8549C36 45.8416 36 45.8284 36 45.8152C36 45.8019 36 45.7887 36 45.7754C36 45.7622 36 45.7489 36 45.7356C36 45.7224 36 45.7091 36 45.6958C36 45.6825 36 45.6692 36 45.6559C36 45.6426 36 45.6292 36 45.6159C36 45.6026 36 45.5892 36 45.5759C36 45.5625 36 45.5492 36 45.5358C36 45.5225 36 45.5091 36 45.4957C36 45.4823 36 45.4689 36 45.4555C36 45.4422 36 45.4287 36 45.4153C36 45.4019 36 45.3885 36 45.3751C36 45.3617 36 45.3482 36 45.3348C36 45.3213 36 45.3079 36 45.2944C36 45.281 36 45.2675 36 45.254C36 45.2406 36 45.2271 36 45.2136C36 45.2001 36 45.1866 36 45.1731C36 45.1596 36 45.1461 36 45.1326C36 45.1191 36 45.1056 36 45.092C36 45.0785 36 45.065 36 45.0514C36 45.0379 36 45.0244 36 45.0108C36 44.9973 36 44.9837 36 44.9701C36 44.9566 36 44.943 36 44.9294C36 44.9159 36 44.9023 36 44.8887C36 44.8751 36 44.8615 36 44.8479C36 44.8343 36 44.8207 36 44.8071C36 44.7935 36 44.7799 36 44.7663C36 44.7527 36 44.7391 36 44.7254C36 44.7118 36 44.6982 36 44.6845C36 44.6709 36 44.6573 36 44.6436C36 44.63 36 44.6163 36 44.6027C36 44.589 36 44.5754 36 44.5617C36 44.548 36 44.5344 36 44.5207C36 44.507 36 44.4934 36 44.4797C36 44.466 36 44.4523 36 44.4386C36 44.425 36 44.4113 36 44.3976C36 44.3839 36 44.3702 36 44.3565C36 44.3428 36 44.3291 36 44.3154C36 44.3017 36 44.288 36 44.2743C36 44.2606 36 44.2469 36 44.2331C36 44.2194 36 44.2057 36 44.192C36 44.1783 36 44.1646 36 44.1508C36 44.1371 36 44.1234 36 44.1096C36 44.0959 36 44.0822 36 44.0685C36 44.0547 36 44.041 36 44.0273C36 44.0135 36 43.9998 36 43.986C36 43.9723 36 43.9586 36 43.9448C36 43.9311 36 43.9173 36 43.9036C36 43.8898 36 43.8761 36 43.8623C36 43.8486 36 43.8348 36 43.8211C36 43.8074 36 43.7936 36 43.7799C36 43.7661 36 43.7523 36 43.7386C36 43.7248 36 43.7111 36 43.6973C36 43.6836 36 43.6698 36 43.6561C36 43.6423 36 43.6286 36 43.6148C36 43.6011 36 43.5873 36 43.5736C36 43.5598 36 43.5461 36 43.5323C36 43.5186 36 43.5048 36 43.4911C36 43.4773 36 43.4635 36 43.4498C36 43.4361 36 43.4223 36 43.4086C36 43.3948 36 43.3811 36 43.3673C36 43.3536 36 43.3398 36 43.3261C36 43.3123 36 43.2986 36 43.2849C36 43.2711 36 43.2574 36 43.2436C36 43.2299 36 43.2162 36 43.2024C36 43.1887 36 43.175 36 43.1612C36 43.1475 36 43.1338 36 43.12C36 43.1063 36 43.0926 36 43.0789C36 43.0652 36 43.0514 36 43.0377C36 43.024 36 43.0103 36 42.9966C36 42.9829 36 42.9692 36 42.9555C36 42.9417 36 42.928 36 42.9143C36 42.9006 36 42.887 36 42.8733C36 42.8596 36 42.8459 36 42.8322C36 42.8185 36 42.8048 36 42.7911C36 42.7775 36 42.7638 36 42.7501C36 42.7364 36 42.7228 36 42.7091C36 42.6954 36 42.6818 36 42.6681C36 42.6545 36 42.6408 36 42.6272C36 42.6135 36 42.5999 36 42.5863C36 42.5726 36 42.559 36 42.5453C36 42.5317 36 42.5181 36 42.5045C36 42.4909 36 42.4772 36 42.4636C36 42.45 36 42.4364 36 42.4228C36 42.4092 36 42.3956 36 42.382C36 42.3684 36 42.3549 36 42.3413C36 42.3277 36 42.3141 36 42.3006C36 42.287 36 42.2734 36 42.2599C36 42.2463 36 42.2328 36 42.2192C36 42.2057 36 42.1922 36 42.1786C36 42.1651 36 42.1516 36 42.1381C36 42.1246 36 42.111 36 42.0975C36 42.084 36 42.0705 36 42.057C36 42.0436 36 42.0301 36 42.0166C36 42.0031 36 41.9897 36 41.9762C36 41.9627 36 41.9493 36 41.9358C36 41.9224 36 41.9089 36 41.8955C36 41.8821 36 41.8686 36 41.8552C36 41.8418 36 41.8284 36 41.815C36 41.8016 36 41.7882 36 41.7748C36 41.7614 36 41.7481 36 41.7347C36 41.7213 36 41.708 36 41.6946C36 41.6813 36 41.6679 36 41.6546C36 41.6412 36 41.6279 36 41.6146C36 41.6013 36 41.588 36 41.5747C36 41.5614 36 41.5481 36 41.5348C36 41.5215 36 41.5082 36 41.495C36 41.4817 36 41.4685 36 41.4552C36 41.442 36 41.4287 36 41.4155C36 41.4023 36 41.3891 36 41.3759C36 41.3627 36 41.3495 36 41.3363C36 41.3231 36 41.3099 36 41.2967C36 41.2836 36 41.2704 36 41.2573C36 41.2441 36 41.231 36 41.2179C36 41.2048 36 41.1916 36 41.1785C36 41.1654 36 41.1523 36 41.1393C36 41.1262 36 41.1131 36 41.1001C36 41.087 36 41.074 36 41.0609C36 41.0479 36 41.0349 36 41.0218C36 41.0088 36 40.9958 36 40.9828C36 40.9699 36 40.9569 36 40.9439C36 40.9309 36 40.918 36 40.905C36 40.8921 36 40.8792 36 40.8663C36 40.8533 36 40.8404 36 40.8275C36 40.8146 36 40.8018 36 40.7889C36 40.776 36 40.7632 36 40.7503C36 40.7375 36 40.7247 36 40.7118C36 40.699 36 40.6862 36 40.6734C36 40.6606 36 40.6479 36 40.6351C36 40.6223 36 40.6096 36 40.5968C36 40.5841 36 40.5714 36 40.5587C36 40.5459 36 40.5332 36 40.5206C36 40.5079 36 40.4952 36 40.4826C36 40.4699 36 40.4573 36 40.4446C36 40.432 36 40.4194 36 40.4068C36 40.3942 36 40.3816 36 40.369C36 40.3565 36 40.3439 36 40.3314C36 40.3188 36 40.3063 36 40.2938C36 40.2813 36 40.2688 36 40.2563C36 40.2438 36 40.2314 36 40.2189C36 40.2065 36 40.194 36 40.1816C36 40.1692 36 40.1568 36 40.1444C36 40.132 36 40.1196 36 40.1073C36 40.0949 36 40.0826 36 40.0702C36 40.0579 36 40.0456 36 40.0333C36 40.021 36 40.0087 36 39.9965C36 39.9842 36 39.972 36 39.9597C36 39.9475 36 39.9353 36 39.9231C36 39.9109 36 39.8987 36 39.8866C36 39.8744 36 39.8623 36 39.8501C36 39.838 36 39.8259 36 39.8138C36 39.8017 36 39.7896 36 39.7776C36 39.7655 36 39.7535 36 39.7414C36 39.7294 36 39.7174 36 39.7054C36 39.6934 36 39.6815 36 39.6695C36 39.6576 36 39.6456 36 39.6337C36 39.6218 36 39.6099 36 39.598C36 39.5861 36 39.5743 36 39.5624C36 39.5506 36 39.5388 36 39.5269C36 39.5151 36 39.5034 36 39.4916C36 39.4798 36 39.4681 36 39.4563C36 39.4446 36 39.4329 36 39.4212C36 39.4095 36 39.3978 36 39.3862C36 39.3745 36 39.3629 36 39.3513C36 39.3397 36 39.3281 36 39.3165C36 39.3049 36 39.2934 36 39.2818C36 39.2703 36 39.2588 36 39.2473C36 39.2358 36 39.2243 36 39.2128C36 39.2014 36 39.1899 36 39.1785C36 39.1671 36 39.1557 36 39.1443C36 39.133 36 39.1216 36 39.1103C36 39.0989 36 39.0876 36 39.0763C36 39.0651 36 39.0538 36 39.0425C36 39.0313 36 39.0201 36 39.0088C36 38.9976 36 38.9865 36 38.9753C36 38.9641 36 38.953 36 38.9419C36 38.9307 36 38.9196 36 38.9086C36 38.8975 36 38.8864 36 38.8754C36 38.8644 36 38.8534 36 38.8424C36 38.8314 36 38.8204 36 38.8095C36 38.7985 36 38.7876 36 38.7767C36 38.7658 36 38.7549 36 38.7441C36 38.7332 36 38.7224 36 38.7116C36 38.7008 36 38.69 36 38.6792C36 38.6685 36 38.6577 36 38.647C36 38.6363 36 38.6256 36 38.6149C36 38.6043 36 38.5936 36 38.583C36 38.5724 36 38.5618 36 38.5512C36 38.5406 36 38.5301 36 38.5196C36 38.509 36 38.4985 36 38.488C36 38.4776 36 38.4671 36 38.4567C36 38.4463 36 38.4359 36 38.4255C36 38.4151 36 38.4047 36 38.3944C36 38.3841 36 38.3738 36 38.3635C36 38.3532 36 38.3429 36 38.3327C36 38.3225 36 38.3123 36 38.3021C36 38.2919 36 38.2818 36 38.2716C36 38.2615 36 38.2514 36 38.2413C36 38.2312 36 38.2212 36 38.2111C36 38.2011 36 38.1911 36 38.1811C36 38.1712 36 38.1612 36 38.1513C36 38.1414 36 38.1315 36 38.1216C36 38.1117 36 38.1019 36 38.0921C36 38.0822 36 38.0725 36 38.0627C36 38.0529 36 38.0432 36 38.0335C36 38.0238 36 38.0141 36 38.0044C36 37.9948 36 37.9851 36 37.9755C36 37.9659 36 37.9563 36 37.9468C36 37.9372 36 37.9277 36 37.9182C36 37.9087 36 37.8993 36 37.8898C36 37.8804 36 37.871 36 37.8616C36 37.8522 36 37.8429 36 37.8335C36 37.8242 36 37.8149 36 37.8056C36 37.7964 36 37.7871 36 37.7779C36 37.7687 36 37.7595 36 37.7504C36 37.7412 36 37.7321 36 37.723C36 37.7139 36 37.7048 36 37.6958C36 37.6867 36 37.6777 36 37.6687C36 37.6597 36 37.6508 36 37.6419C36 37.6329 36 37.624 36 37.6152C36 37.6063 36 37.5975 36 37.5887C36 37.5799 36 37.5711 36 37.5623C36 37.5536 36 37.5449 36 37.5362C36 37.5275 36 37.5189 36 37.5102C36 37.5016 36 37.493 36 37.4844C36 37.4759 36 37.4673 36 37.4588C36 37.4503 36 37.4419 36 37.4334C36 37.425 36 37.4166 36 37.4082C36 37.3998 36 37.3915 36 37.3831C36 37.3748 36 37.3665 36 37.3583C36 37.35 36 37.3418 36 37.3336C36 37.3254 36 37.3172 36 37.3091C36 37.301 36 37.2929 36 37.2848C36 37.2768 36 37.2687 36 37.2607C36 37.2527 36 37.2447 36 37.2368C36 37.2289 36 37.221 36 37.2131C36 37.2052 36 37.1974 36 37.1896C36 37.1818 36 37.174 36 37.1662C36 37.1585 36 37.1508 36 37.1431C36 37.1354 36 37.1278 36 37.1202C36 37.1126 36 37.105 36 37.0974C36 37.0899 36 37.0824 36 37.0749C36 37.0674 36 37.06 36 37.0526C36 37.0452 36 37.0378 36 37.0304C36 37.0231 36 37.0158 36 37.0085C36 37.0012 36 36.994 36 36.9868C36 36.9796 36 36.9724 36 36.9653C36 36.9581 36 36.951 36 36.944C36 36.9369 36 36.9299 36 36.9229C36 36.9159 36 36.9089 36 36.902C36 36.895 36 36.8881 36 36.8813C36 36.8744 36 36.8676 36 36.8608C36 36.854 36 36.8473 36 36.8405C36 36.8338 36 36.8271 36 36.8205C36 36.8138 36 36.8072 36 36.8006C36 36.7941 36 36.7875 36 36.781C36 36.7745 36 36.7681 36 36.7616C36 36.7552 36 36.7488 36 36.7424C36 36.7361 36 36.7297 36 36.7235C36 36.7172 36 36.7109 36 36.7047C36 36.6985 36 36.6923 36 36.6862C36 36.68 36 36.6739 36 36.6679C36 36.6618 36 36.6558 36 36.6498C36 36.6438 36 36.6378 36 36.6319C36 36.626 36 36.6201 36 36.6143C36 36.6084 36 36.6026 36 36.5969C36 36.5911 36 36.5854 36 36.5797C36 36.574 36 36.5683 36 36.5627C36 36.5571 36 36.5515 36 36.546C36 36.5404 36 36.5349 36 36.5295C36 36.524 36 36.5186 36 36.5132C36 36.5078 36 36.5025 36 36.4972C36 36.4919 36 36.4866 36 36.4814C36 36.4761 36 36.4709 36 36.4658C36 36.4606 36 36.4555 36 36.4505C36 36.4454 36 36.4404 36 36.4354C36 36.4304 36 36.4254 36 36.4205C36 36.4156 36 36.4107 36 36.4059C36 36.401 36 36.3962 36 36.3915C36 36.3867 36 36.382 36 36.3774C36 36.3727 36 36.368 36 36.3635C36 36.3589 36 36.3543 36 36.3498C36 36.3453 36 36.3408 36 36.3364C36 36.3319 36 36.3276 36 36.3232C36 36.3189 36 36.3146 36 36.3103C36 36.306 36 36.3018 36 36.2976C36 36.2934 36 36.2893 36 36.2852C36 36.2811 36 36.277 36 36.273C36 36.269 36 36.265 36 36.2611C36 36.2571 36 36.2533 36 36.2494C36 36.2456 36 36.2417 36 36.238C36 36.2342 36 36.2305 36 36.2268C36 36.2231 36 36.2195 36 36.2159C36 36.2123 36 36.2087 36 36.2052C36 36.2017 36 36.1983 36 36.1948C36 36.1914 36 36.188 36 36.1847C36 36.1813 36 36.178 36 36.1748C36 36.1715 36 36.1683 36 36.1652C36 36.162 36 36.1589 36 36.1558C36 36.1527 36 36.1497 36 36.1467C36 36.1437 36 36.1408 36 36.1379C36 36.135 36 36.1321 36 36.1293C36 36.1265 36 36.1237 36 36.121C36 36.1182 36 36.1156 36 36.1129C36 36.1103 36 36.1077 36 36.1052C36 36.1026 36 36.1001 36 36.0976C36 36.0952 36 36.0928 36 36.0904C36 36.088 36 36.0857 36 36.0834C36 36.0812 36 36.0789 36 36.0767C36 36.0746 36 36.0724 36 36.0703C36 36.0682 36 36.0662 36 36.0642C36 36.0622 36 36.0602 36 36.0583C36 36.0564 36 36.0545 36 36.0527C36 36.0509 36 36.0491 36 36.0474C36 36.0456 36 36.044 36 36.0423C36 36.0407 36 36.0391 36 36.0376C36 36.036 36 36.0345 36 36.0331C36 36.0316 36 36.0302 36 36.0289C36 36.0275 36 36.0262 36 36.025C36 36.0237 36 36.0225 36 36.0213C36 36.0202 36 36.0191 36 36.018C36 36.0169 36 36.0159 36 36.0149C36 36.0139 36 36.013 36 36.0121C36 36.0113 36 36.0104 36 36.0096C36 36.0089 36 36.0081 36 36.0074C36 36.0068 36 36.0061 36 36.0055C36 36.0049 36 36.0044 36 36.0039C36 36.0034 36 36.003 36 36.0026C36 36.0022 36 36.0018 36 36.0016C36 36.0013 36 36.001 36 36.0008C36 36.0006 36 36.0005 36 36.0004C36 36.0003 36 36.0002 35 36.0002ZM36 21C36 20.1542 36.2108 19.7034 36.4571 19.4571C36.7034 19.2108 37.1541 19 38 19V17C36.8458 17 35.7966 17.2892 35.0429 18.0429C34.2892 18.7966 34 19.8458 34 21H36ZM38 19C38.0039 19 38.0078 19 38.0118 19C38.0157 19 38.0197 19 38.0236 19C38.0276 19 38.0316 19 38.0357 19C38.0397 19 38.0437 19 38.0478 19C38.0518 19 38.0559 19 38.06 19C38.0641 19 38.0682 19 38.0723 19C38.0765 19 38.0806 19 38.0848 19C38.089 19 38.0931 19 38.0973 19C38.1016 19 38.1058 19 38.11 19C38.1143 19 38.1185 19 38.1228 19C38.1271 19 38.1314 19 38.1357 19C38.14 19 38.1443 19 38.1487 19C38.153 19 38.1574 19 38.1618 19C38.1662 19 38.1706 19 38.175 19C38.1794 19 38.1839 19 38.1883 19C38.1928 19 38.1973 19 38.2018 19C38.2063 19 38.2108 19 38.2153 19C38.2198 19 38.2244 19 38.2289 19C38.2335 19 38.2381 19 38.2427 19C38.2473 19 38.2519 19 38.2565 19C38.2612 19 38.2658 19 38.2705 19C38.2751 19 38.2798 19 38.2845 19C38.2892 19 38.294 19 38.2987 19C38.3034 19 38.3082 19 38.313 19C38.3177 19 38.3225 19 38.3273 19C38.3321 19 38.3369 19 38.3418 19C38.3466 19 38.3515 19 38.3563 19C38.3612 19 38.3661 19 38.371 19C38.3759 19 38.3808 19 38.3858 19C38.3907 19 38.3957 19 38.4006 19C38.4056 19 38.4106 19 38.4156 19C38.4206 19 38.4256 19 38.4306 19C38.4357 19 38.4407 19 38.4458 19C38.4509 19 38.456 19 38.4611 19C38.4662 19 38.4713 19 38.4764 19C38.4815 19 38.4867 19 38.4918 19C38.497 19 38.5022 19 38.5074 19C38.5126 19 38.5178 19 38.523 19C38.5282 19 38.5335 19 38.5387 19C38.544 19 38.5493 19 38.5546 19C38.5598 19 38.5652 19 38.5705 19C38.5758 19 38.5811 19 38.5865 19C38.5918 19 38.5972 19 38.6026 19C38.608 19 38.6134 19 38.6188 19C38.6242 19 38.6296 19 38.635 19C38.6405 19 38.6459 19 38.6514 19C38.6569 19 38.6624 19 38.6679 19C38.6734 19 38.6789 19 38.6844 19C38.69 19 38.6955 19 38.7011 19C38.7066 19 38.7122 19 38.7178 19C38.7234 19 38.729 19 38.7346 19C38.7402 19 38.7459 19 38.7515 19C38.7572 19 38.7628 19 38.7685 19C38.7742 19 38.7799 19 38.7856 19C38.7913 19 38.797 19 38.8027 19C38.8085 19 38.8142 19 38.82 19C38.8257 19 38.8315 19 38.8373 19C38.8431 19 38.8489 19 38.8547 19C38.8605 19 38.8664 19 38.8722 19C38.8781 19 38.8839 19 38.8898 19C38.8957 19 38.9015 19 38.9074 19C38.9133 19 38.9193 19 38.9252 19C38.9311 19 38.9371 19 38.943 19C38.949 19 38.9549 19 38.9609 19C38.9669 19 38.9729 19 38.9789 19C38.9849 19 38.9909 19 38.997 19C39.003 19 39.009 19 39.0151 19C39.0212 19 39.0272 19 39.0333 19C39.0394 19 39.0455 19 39.0516 19C39.0577 19 39.0639 19 39.07 19C39.0761 19 39.0823 19 39.0885 19C39.0946 19 39.1008 19 39.107 19C39.1132 19 39.1194 19 39.1256 19C39.1318 19 39.138 19 39.1443 19C39.1505 19 39.1568 19 39.163 19C39.1693 19 39.1756 19 39.1819 19C39.1882 19 39.1945 19 39.2008 19C39.2071 19 39.2134 19 39.2197 19C39.2261 19 39.2324 19 39.2388 19C39.2452 19 39.2515 19 39.2579 19C39.2643 19 39.2707 19 39.2771 19C39.2835 19 39.2899 19 39.2964 19C39.3028 19 39.3092 19 39.3157 19C39.3222 19 39.3286 19 39.3351 19C39.3416 19 39.3481 19 39.3546 19C39.3611 19 39.3676 19 39.3741 19C39.3807 19 39.3872 19 39.3937 19C39.4003 19 39.4068 19 39.4134 19C39.42 19 39.4266 19 39.4332 19C39.4398 19 39.4464 19 39.453 19C39.4596 19 39.4662 19 39.4729 19C39.4795 19 39.4861 19 39.4928 19C39.4995 19 39.5061 19 39.5128 19C39.5195 19 39.5262 19 39.5329 19C39.5396 19 39.5463 19 39.553 19C39.5597 19 39.5665 19 39.5732 19C39.58 19 39.5867 19 39.5935 19C39.6003 19 39.607 19 39.6138 19C39.6206 19 39.6274 19 39.6342 19C39.641 19 39.6478 19 39.6547 19C39.6615 19 39.6683 19 39.6752 19C39.682 19 39.6889 19 39.6957 19C39.7026 19 39.7095 19 39.7164 19C39.7233 19 39.7301 19 39.7371 19C39.744 19 39.7509 19 39.7578 19C39.7647 19 39.7717 19 39.7786 19C39.7856 19 39.7925 19 39.7995 19C39.8064 19 39.8134 19 39.8204 19C39.8274 19 39.8344 19 39.8414 19C39.8484 19 39.8554 19 39.8624 19C39.8694 19 39.8765 19 39.8835 19C39.8905 19 39.8976 19 39.9046 19C39.9117 19 39.9188 19 39.9258 19C39.9329 19 39.94 19 39.9471 19C39.9542 19 39.9613 19 39.9684 19C39.9755 19 39.9826 19 39.9898 19C39.9969 19 40.004 19 40.0112 19C40.0183 19 40.0255 19 40.0326 19C40.0398 19 40.047 19 40.0541 19C40.0613 19 40.0685 19 40.0757 19C40.0829 19 40.0901 19 40.0973 19C40.1045 19 40.1118 19 40.119 19C40.1262 19 40.1335 19 40.1407 19C40.1479 19 40.1552 19 40.1625 19C40.1697 19 40.177 19 40.1843 19C40.1915 19 40.1988 19 40.2061 19C40.2134 19 40.2207 19 40.228 19C40.2353 19 40.2427 19 40.25 19C40.2573 19 40.2646 19 40.272 19C40.2793 19 40.2867 19 40.294 19C40.3014 19 40.3087 19 40.3161 19C40.3235 19 40.3308 19 40.3382 19C40.3456 19 40.353 19 40.3604 19C40.3678 19 40.3752 19 40.3826 19C40.39 19 40.3975 19 40.4049 19C40.4123 19 40.4197 19 40.4272 19C40.4346 19 40.4421 19 40.4495 19C40.457 19 40.4644 19 40.4719 19C40.4794 19 40.4868 19 40.4943 19C40.5018 19 40.5093 19 40.5168 19C40.5243 19 40.5318 19 40.5393 19C40.5468 19 40.5543 19 40.5618 19C40.5694 19 40.5769 19 40.5844 19C40.5919 19 40.5995 19 40.607 19C40.6146 19 40.6221 19 40.6297 19C40.6372 19 40.6448 19 40.6524 19C40.66 19 40.6675 19 40.6751 19C40.6827 19 40.6903 19 40.6979 19C40.7055 19 40.7131 19 40.7207 19C40.7283 19 40.7359 19 40.7435 19C40.7511 19 40.7587 19 40.7664 19C40.774 19 40.7816 19 40.7893 19C40.7969 19 40.8046 19 40.8122 19C40.8199 19 40.8275 19 40.8352 19C40.8428 19 40.8505 19 40.8582 19C40.8658 19 40.8735 19 40.8812 19C40.8889 19 40.8966 19 40.9043 19C40.9119 19 40.9196 19 40.9273 19C40.935 19 40.9428 19 40.9505 19C40.9582 19 40.9659 19 40.9736 19C40.9813 19 40.9891 19 40.9968 19C41.0045 19 41.0123 19 41.02 19C41.0277 19 41.0355 19 41.0432 19C41.051 19 41.0587 19 41.0665 19C41.0742 19 41.082 19 41.0898 19C41.0975 19 41.1053 19 41.1131 19C41.1209 19 41.1286 19 41.1364 19C41.1442 19 41.152 19 41.1598 19C41.1676 19 41.1754 19 41.1832 19C41.191 19 41.1988 19 41.2066 19C41.2144 19 41.2222 19 41.23 19C41.2378 19 41.2456 19 41.2535 19C41.2613 19 41.2691 19 41.277 19C41.2848 19 41.2926 19 41.3005 19C41.3083 19 41.3161 19 41.324 19C41.3318 19 41.3397 19 41.3475 19C41.3554 19 41.3632 19 41.3711 19C41.3789 19 41.3868 19 41.3947 19C41.4025 19 41.4104 19 41.4183 19C41.4261 19 41.434 19 41.4419 19C41.4498 19 41.4576 19 41.4655 19C41.4734 19 41.4813 19 41.4892 19C41.4971 19 41.5049 19 41.5128 19C41.5207 19 41.5286 19 41.5365 19C41.5444 19 41.5523 19 41.5602 19C41.5681 19 41.576 19 41.5839 19C41.5919 19 41.5998 19 41.6077 19C41.6156 19 41.6235 19 41.6314 19C41.6393 19 41.6473 19 41.6552 19C41.6631 19 41.671 19 41.679 19C41.6869 19 41.6948 19 41.7027 19C41.7107 19 41.7186 19 41.7265 19C41.7345 19 41.7424 19 41.7504 19C41.7583 19 41.7662 19 41.7742 19C41.7821 19 41.7901 19 41.798 19C41.8059 19 41.8139 19 41.8218 19C41.8298 19 41.8377 19 41.8457 19C41.8536 19 41.8616 19 41.8696 19C41.8775 19 41.8855 19 41.8934 19C41.9014 19 41.9093 19 41.9173 19C41.9253 19 41.9332 19 41.9412 19C41.9491 19 41.9571 19 41.9651 19C41.973 19 41.981 19 41.989 19C41.9969 19 42.0049 19 42.0129 19C42.0208 19 42.0288 19 42.0368 19C42.0447 19 42.0527 19 42.0607 19C42.0686 19 42.0766 19 42.0846 19C42.0926 19 42.1005 19 42.1085 19C42.1165 19 42.1244 19 42.1324 19C42.1404 19 42.1484 19 42.1563 19C42.1643 19 42.1723 19 42.1803 19C42.1882 19 42.1962 19 42.2042 19C42.2122 19 42.2201 19 42.2281 19C42.2361 19 42.2441 19 42.252 19C42.26 19 42.268 19 42.276 19C42.2839 19 42.2919 19 42.2999 19C42.3079 19 42.3158 19 42.3238 19C42.3318 19 42.3398 19 42.3477 19C42.3557 19 42.3637 19 42.3717 19C42.3796 19 42.3876 19 42.3956 19C42.4035 19 42.4115 19 42.4195 19C42.4275 19 42.4354 19 42.4434 19C42.4514 19 42.4593 19 42.4673 19C42.4753 19 42.4832 19 42.4912 19C42.4992 19 42.5071 19 42.5151 19C42.523 19 42.531 19 42.539 19C42.5469 19 42.5549 19 42.5629 19C42.5708 19 42.5788 19 42.5867 19C42.5947 19 42.6026 19 42.6106 19C42.6185 19 42.6265 19 42.6344 19C42.6424 19 42.6503 19 42.6583 19C42.6662 19 42.6742 19 42.6821 19C42.6901 19 42.698 19 42.706 19C42.7139 19 42.7218 19 42.7298 19C42.7377 19 42.7456 19 42.7536 19C42.7615 19 42.7694 19 42.7774 19C42.7853 19 42.7932 19 42.8012 19C42.8091 19 42.817 19 42.8249 19C42.8328 19 42.8408 19 42.8487 19C42.8566 19 42.8645 19 42.8724 19C42.8803 19 42.8882 19 42.8961 19C42.9041 19 42.912 19 42.9199 19C42.9278 19 42.9357 19 42.9436 19C42.9515 19 42.9593 19 42.9672 19C42.9751 19 42.983 19 42.9909 19C42.9988 19 43.0067 19 43.0146 19C43.0224 19 43.0303 19 43.0382 19C43.0461 19 43.0539 19 43.0618 19C43.0697 19 43.0775 19 43.0854 19C43.0933 19 43.1011 19 43.109 19C43.1168 19 43.1247 19 43.1325 19C43.1404 19 43.1482 19 43.1561 19C43.1639 19 43.1717 19 43.1796 19C43.1874 19 43.1952 19 43.2031 19C43.2109 19 43.2187 19 43.2265 19C43.2344 19 43.2422 19 43.25 19C43.2578 19 43.2656 19 43.2734 19C43.2812 19 43.289 19 43.2968 19C43.3046 19 43.3124 19 43.3202 19C43.328 19 43.3358 19 43.3435 19C43.3513 19 43.3591 19 43.3669 19C43.3746 19 43.3824 19 43.3902 19C43.3979 19 43.4057 19 43.4135 19C43.4212 19 43.429 19 43.4367 19C43.4445 19 43.4522 19 43.4599 19C43.4677 19 43.4754 19 43.4831 19C43.4909 19 43.4986 19 43.5063 19C43.514 19 43.5217 19 43.5294 19C43.5371 19 43.5448 19 43.5525 19C43.5602 19 43.5679 19 43.5756 19C43.5833 19 43.591 19 43.5987 19C43.6063 19 43.614 19 43.6217 19C43.6294 19 43.637 19 43.6447 19C43.6523 19 43.66 19 43.6676 19C43.6753 19 43.6829 19 43.6906 19C43.6982 19 43.7058 19 43.7134 19C43.7211 19 43.7287 19 43.7363 19C43.7439 19 43.7515 19 43.7591 19C43.7667 19 43.7743 19 43.7819 19C43.7895 19 43.7971 19 43.8047 19C43.8122 19 43.8198 19 43.8274 19C43.8349 19 43.8425 19 43.8501 19C43.8576 19 43.8652 19 43.8727 19C43.8802 19 43.8878 19 43.8953 19C43.9028 19 43.9104 19 43.9179 19C43.9254 19 43.9329 19 43.9404 19C43.9479 19 43.9554 19 43.9629 19C43.9704 19 43.9779 19 43.9853 19C43.9928 19 44.0003 19 44.0077 19C44.0152 19 44.0227 19 44.0301 19C44.0376 19 44.045 19 44.0524 19C44.0599 19 44.0673 19 44.0747 19C44.0822 19 44.0896 19 44.097 19C44.1044 19 44.1118 19 44.1192 19C44.1266 19 44.134 19 44.1413 19C44.1487 19 44.1561 19 44.1635 19C44.1708 19 44.1782 19 44.1855 19C44.1929 19 44.2002 19 44.2076 19C44.2149 19 44.2222 19 44.2295 19C44.2369 19 44.2442 19 44.2515 19C44.2588 19 44.2661 19 44.2734 19C44.2806 19 44.2879 19 44.2952 19C44.3025 19 44.3097 19 44.317 19C44.3242 19 44.3315 19 44.3387 19C44.346 19 44.3532 19 44.3604 19C44.3677 19 44.3749 19 44.3821 19C44.3893 19 44.3965 19 44.4037 19C44.4109 19 44.418 19 44.4252 19C44.4324 19 44.4396 19 44.4467 19C44.4539 19 44.461 19 44.4682 19C44.4753 19 44.4824 19 44.4896 19C44.4967 19 44.5038 19 44.5109 19C44.518 19 44.5251 19 44.5322 19C44.5393 19 44.5464 19 44.5534 19C44.5605 19 44.5676 19 44.5746 19C44.5817 19 44.5887 19 44.5957 19C44.6028 19 44.6098 19 44.6168 19C44.6238 19 44.6308 19 44.6378 19C44.6448 19 44.6518 19 44.6588 19C44.6658 19 44.6727 19 44.6797 19C44.6866 19 44.6936 19 44.7005 19C44.7075 19 44.7144 19 44.7213 19C44.7282 19 44.7351 19 44.742 19C44.7489 19 44.7558 19 44.7627 19C44.7696 19 44.7765 19 44.7833 19C44.7902 19 44.797 19 44.8039 19C44.8107 19 44.8175 19 44.8244 19C44.8312 19 44.838 19 44.8448 19C44.8516 19 44.8584 19 44.8652 19C44.8719 19 44.8787 19 44.8855 19C44.8922 19 44.899 19 44.9057 19C44.9124 19 44.9192 19 44.9259 19C44.9326 19 44.9393 19 44.946 19C44.9527 19 44.9594 19 44.9661 19C44.9727 19 44.9794 19 44.9861 19C44.9927 19 44.9993 19 45.006 19C45.0126 19 45.0192 19 45.0258 19C45.0324 19 45.039 19 45.0456 19C45.0522 19 45.0588 19 45.0653 19C45.0719 19 45.0785 19 45.085 19C45.0915 19 45.0981 19 45.1046 19C45.1111 19 45.1176 19 45.1241 19C45.1306 19 45.1371 19 45.1436 19C45.15 19 45.1565 19 45.1629 19C45.1694 19 45.1758 19 45.1823 19C45.1887 19 45.1951 19 45.2015 19C45.2079 19 45.2143 19 45.2207 19C45.227 19 45.2334 19 45.2398 19C45.2461 19 45.2525 19 45.2588 19C45.2651 19 45.2714 19 45.2777 19C45.284 19 45.2903 19 45.2966 19C45.3029 19 45.3092 19 45.3154 19C45.3217 19 45.3279 19 45.3342 19C45.3404 19 45.3466 19 45.3528 19C45.359 19 45.3652 19 45.3714 19C45.3776 19 45.3837 19 45.3899 19C45.3961 19 45.4022 19 45.4083 19C45.4145 19 45.4206 19 45.4267 19C45.4328 19 45.4389 19 45.4449 19C45.451 19 45.4571 19 45.4631 19C45.4692 19 45.4752 19 45.4813 19C45.4873 19 45.4933 19 45.4993 19C45.5053 19 45.5113 19 45.5173 19C45.5232 19 45.5292 19 45.5351 19C45.5411 19 45.547 19 45.5529 19C45.5588 19 45.5648 19 45.5706 19C45.5765 19 45.5824 19 45.5883 19C45.5941 19 45.6 19 45.6058 19C45.6117 19 45.6175 19 45.6233 19C45.6291 19 45.6349 19 45.6407 19C45.6465 19 45.6522 19 45.658 19C45.6637 19 45.6695 19 45.6752 19C45.6809 19 45.6866 19 45.6923 19C45.698 19 45.7037 19 45.7094 19C45.715 19 45.7207 19 45.7263 19C45.732 19 45.7376 19 45.7432 19C45.7488 19 45.7544 19 45.76 19C45.7656 19 45.7711 19 45.7767 19C45.7822 19 45.7878 19 45.7933 19C45.7988 19 45.8043 19 45.8098 19C45.8153 19 45.8208 19 45.8262 19C45.8317 19 45.8372 19 45.8426 19C45.848 19 45.8534 19 45.8588 19C45.8642 19 45.8696 19 45.875 19C45.8804 19 45.8857 19 45.8911 19C45.8964 19 45.9017 19 45.907 19C45.9123 19 45.9176 19 45.9229 19C45.9282 19 45.9335 19 45.9387 19C45.944 19 45.9492 19 45.9544 19C45.9596 19 45.9648 19 45.97 19C45.9752 19 45.9804 19 45.9855 19C45.9907 19 45.9958 19 46.0009 19C46.006 19 46.0112 19 46.0162 19C46.0213 19 46.0264 19 46.0315 19C46.0365 19 46.0416 19 46.0466 19C46.0516 19 46.0566 19 46.0616 19C46.0666 19 46.0716 19 46.0765 19C46.0815 19 46.0864 19 46.0914 19C46.0963 19 46.1012 19 46.1061 19C46.111 19 46.1159 19 46.1207 19C46.1256 19 46.1304 19 46.1353 19C46.1401 19 46.1449 19 46.1497 19C46.1545 19 46.1593 19 46.164 19C46.1688 19 46.1735 19 46.1782 19C46.183 19 46.1877 19 46.1924 19C46.1971 19 46.2017 19 46.2064 19C46.211 19 46.2157 19 46.2203 19C46.2249 19 46.2295 19 46.2341 19C46.2387 19 46.2433 19 46.2478 19C46.2524 19 46.2569 19 46.2614 19C46.2659 19 46.2704 19 46.2749 19C46.2794 19 46.2839 19 46.2883 19C46.2928 19 46.2972 19 46.3016 19C46.306 19 46.3104 19 46.3148 19C46.3192 19 46.3235 19 46.3279 19C46.3322 19 46.3365 19 46.3408 19C46.3451 19 46.3494 19 46.3537 19C46.3579 19 46.3622 19 46.3664 19C46.3706 19 46.3749 19 46.3791 19C46.3832 19 46.3874 19 46.3916 19C46.3957 19 46.3999 19 46.404 19C46.4081 19 46.4122 19 46.4163 19C46.4204 19 46.4244 19 46.4285 19C46.4325 19 46.4366 19 46.4406 19C46.4446 19 46.4486 19 46.4525 19C46.4565 19 46.4605 19 46.4644 19C46.4683 19 46.4722 19 46.4761 19C46.48 19 46.4839 19 46.4877 19C46.4916 19 46.4954 19 46.4993 19C46.5031 19 46.5069 19 46.5106 19C46.5144 19 46.5182 19 46.5219 19C46.5257 19 46.5294 19 46.5331 19C46.5368 19 46.5405 19 46.5441 19C46.5478 19 46.5514 19 46.555 19C46.5587 19 46.5623 19 46.5659 19C46.5694 19 46.573 19 46.5765 19C46.5801 19 46.5836 19 46.5871 19C46.5906 19 46.5941 19 46.5976 19C46.601 19 46.6045 19 46.6079 19C46.6113 19 46.6147 19 46.6181 19C46.6215 19 46.6248 19 46.6282 19C46.6315 19 46.6348 19 46.6381 19C46.6414 19 46.6447 19 46.648 19C46.6512 19 46.6545 19 46.6577 19C46.6609 19 46.6641 19 46.6673 19C46.6705 19 46.6736 19 46.6767 19C46.6799 19 46.683 19 46.6861 19C46.6892 19 46.6923 19 46.6953 19C46.6984 19 46.7014 19 46.7044 19C46.7074 19 46.7104 19 46.7134 19C46.7163 19 46.7193 19 46.7222 19C46.7251 19 46.728 19 46.7309 19C46.7338 19 46.7367 19 46.7395 19C46.7423 19 46.7452 19 46.748 19C46.7508 19 46.7535 19 46.7563 19C46.759 19 46.7618 19 46.7645 19C46.7672 19 46.7699 19 46.7725 19C46.7752 19 46.7779 19 46.7805 19C46.7831 19 46.7857 19 46.7883 19C46.7909 19 46.7934 19 46.796 19C46.7985 19 46.801 19 46.8035 19C46.806 19 46.8085 19 46.8109 19C46.8134 19 46.8158 19 46.8182 19C46.8206 19 46.823 19 46.8253 19C46.8277 19 46.83 19 46.8323 19C46.8346 19 46.8369 19 46.8392 19C46.8415 19 46.8437 19 46.8459 19C46.8481 19 46.8503 19 46.8525 19C46.8547 19 46.8569 19 46.859 19C46.8611 19 46.8632 19 46.8653 19C46.8674 19 46.8695 19 46.8715 19C46.8735 19 46.8756 19 46.8775 19C46.8795 19 46.8815 19 46.8835 19C46.8854 19 46.8873 19 46.8892 19C46.8911 19 46.893 19 46.8949 19C46.8967 19 46.8985 19 46.9004 19C46.9022 19 46.9039 19 46.9057 19C46.9075 19 46.9092 19 46.9109 19C46.9126 19 46.9143 19 46.916 19C46.9176 19 46.9193 19 46.9209 19C46.9225 19 46.9241 19 46.9257 19C46.9272 19 46.9288 19 46.9303 19C46.9318 19 46.9333 19 46.9348 19C46.9363 19 46.9377 19 46.9392 19C46.9406 19 46.942 19 46.9434 19C46.9447 19 46.9461 19 46.9474 19C46.9487 19 46.95 19 46.9513 19C46.9526 19 46.9539 19 46.9551 19C46.9563 19 46.9575 19 46.9587 19C46.9599 19 46.961 19 46.9622 19C46.9633 19 46.9644 19 46.9655 19C46.9666 19 46.9676 19 46.9687 19C46.9697 19 46.9707 19 46.9717 19C46.9727 19 46.9736 19 46.9746 19C46.9755 19 46.9764 19 46.9773 19C46.9782 19 46.979 19 46.9799 19C46.9807 19 46.9815 19 46.9823 19C46.9831 19 46.9838 19 46.9845 19C46.9853 19 46.986 19 46.9867 19C46.9873 19 46.988 19 46.9886 19C46.9892 19 46.9898 19 46.9904 19C46.991 19 46.9916 19 46.9921 19C46.9926 19 46.9931 19 46.9936 19C46.994 19 46.9945 19 46.9949 19C46.9953 19 46.9957 19 46.9961 19C46.9965 19 46.9968 19 46.9971 19C46.9975 19 46.9977 19 46.998 19C46.9983 19 46.9985 19 46.9987 19C46.9989 19 46.9991 19 46.9993 19C46.9994 19 46.9996 19 46.9997 19C46.9998 19 46.9999 19 46.9999 19C47 19 47 19 47 18C47 17 47 17 46.9999 17C46.9999 17 46.9998 17 46.9997 17C46.9996 17 46.9994 17 46.9993 17C46.9991 17 46.9989 17 46.9987 17C46.9985 17 46.9983 17 46.998 17C46.9977 17 46.9975 17 46.9971 17C46.9968 17 46.9965 17 46.9961 17C46.9957 17 46.9953 17 46.9949 17C46.9945 17 46.994 17 46.9936 17C46.9931 17 46.9926 17 46.9921 17C46.9916 17 46.991 17 46.9904 17C46.9898 17 46.9892 17 46.9886 17C46.988 17 46.9873 17 46.9867 17C46.986 17 46.9853 17 46.9845 17C46.9838 17 46.9831 17 46.9823 17C46.9815 17 46.9807 17 46.9799 17C46.979 17 46.9782 17 46.9773 17C46.9764 17 46.9755 17 46.9746 17C46.9736 17 46.9727 17 46.9717 17C46.9707 17 46.9697 17 46.9687 17C46.9676 17 46.9666 17 46.9655 17C46.9644 17 46.9633 17 46.9622 17C46.961 17 46.9599 17 46.9587 17C46.9575 17 46.9563 17 46.9551 17C46.9539 17 46.9526 17 46.9513 17C46.95 17 46.9487 17 46.9474 17C46.9461 17 46.9447 17 46.9434 17C46.942 17 46.9406 17 46.9392 17C46.9377 17 46.9363 17 46.9348 17C46.9333 17 46.9318 17 46.9303 17C46.9288 17 46.9272 17 46.9257 17C46.9241 17 46.9225 17 46.9209 17C46.9193 17 46.9176 17 46.916 17C46.9143 17 46.9126 17 46.9109 17C46.9092 17 46.9075 17 46.9057 17C46.9039 17 46.9022 17 46.9004 17C46.8985 17 46.8967 17 46.8949 17C46.893 17 46.8911 17 46.8892 17C46.8873 17 46.8854 17 46.8835 17C46.8815 17 46.8795 17 46.8775 17C46.8756 17 46.8735 17 46.8715 17C46.8695 17 46.8674 17 46.8653 17C46.8632 17 46.8611 17 46.859 17C46.8569 17 46.8547 17 46.8525 17C46.8503 17 46.8481 17 46.8459 17C46.8437 17 46.8415 17 46.8392 17C46.8369 17 46.8346 17 46.8323 17C46.83 17 46.8277 17 46.8253 17C46.823 17 46.8206 17 46.8182 17C46.8158 17 46.8134 17 46.8109 17C46.8085 17 46.806 17 46.8035 17C46.801 17 46.7985 17 46.796 17C46.7934 17 46.7909 17 46.7883 17C46.7857 17 46.7831 17 46.7805 17C46.7779 17 46.7752 17 46.7725 17C46.7699 17 46.7672 17 46.7645 17C46.7618 17 46.759 17 46.7563 17C46.7535 17 46.7508 17 46.748 17C46.7452 17 46.7423 17 46.7395 17C46.7367 17 46.7338 17 46.7309 17C46.728 17 46.7251 17 46.7222 17C46.7193 17 46.7163 17 46.7134 17C46.7104 17 46.7074 17 46.7044 17C46.7014 17 46.6984 17 46.6953 17C46.6923 17 46.6892 17 46.6861 17C46.683 17 46.6799 17 46.6767 17C46.6736 17 46.6705 17 46.6673 17C46.6641 17 46.6609 17 46.6577 17C46.6545 17 46.6512 17 46.648 17C46.6447 17 46.6414 17 46.6381 17C46.6348 17 46.6315 17 46.6282 17C46.6248 17 46.6215 17 46.6181 17C46.6147 17 46.6113 17 46.6079 17C46.6045 17 46.601 17 46.5976 17C46.5941 17 46.5906 17 46.5871 17C46.5836 17 46.5801 17 46.5765 17C46.573 17 46.5694 17 46.5659 17C46.5623 17 46.5587 17 46.555 17C46.5514 17 46.5478 17 46.5441 17C46.5405 17 46.5368 17 46.5331 17C46.5294 17 46.5257 17 46.5219 17C46.5182 17 46.5144 17 46.5106 17C46.5069 17 46.5031 17 46.4993 17C46.4954 17 46.4916 17 46.4877 17C46.4839 17 46.48 17 46.4761 17C46.4722 17 46.4683 17 46.4644 17C46.4605 17 46.4565 17 46.4525 17C46.4486 17 46.4446 17 46.4406 17C46.4366 17 46.4325 17 46.4285 17C46.4244 17 46.4204 17 46.4163 17C46.4122 17 46.4081 17 46.404 17C46.3999 17 46.3957 17 46.3916 17C46.3874 17 46.3832 17 46.3791 17C46.3749 17 46.3706 17 46.3664 17C46.3622 17 46.3579 17 46.3537 17C46.3494 17 46.3451 17 46.3408 17C46.3365 17 46.3322 17 46.3279 17C46.3235 17 46.3192 17 46.3148 17C46.3104 17 46.306 17 46.3016 17C46.2972 17 46.2928 17 46.2883 17C46.2839 17 46.2794 17 46.2749 17C46.2704 17 46.2659 17 46.2614 17C46.2569 17 46.2524 17 46.2478 17C46.2433 17 46.2387 17 46.2341 17C46.2295 17 46.2249 17 46.2203 17C46.2157 17 46.211 17 46.2064 17C46.2017 17 46.1971 17 46.1924 17C46.1877 17 46.183 17 46.1782 17C46.1735 17 46.1688 17 46.164 17C46.1593 17 46.1545 17 46.1497 17C46.1449 17 46.1401 17 46.1353 17C46.1304 17 46.1256 17 46.1207 17C46.1159 17 46.111 17 46.1061 17C46.1012 17 46.0963 17 46.0914 17C46.0864 17 46.0815 17 46.0765 17C46.0716 17 46.0666 17 46.0616 17C46.0566 17 46.0516 17 46.0466 17C46.0416 17 46.0365 17 46.0315 17C46.0264 17 46.0213 17 46.0162 17C46.0112 17 46.006 17 46.0009 17C45.9958 17 45.9907 17 45.9855 17C45.9804 17 45.9752 17 45.97 17C45.9648 17 45.9596 17 45.9544 17C45.9492 17 45.944 17 45.9387 17C45.9335 17 45.9282 17 45.9229 17C45.9176 17 45.9123 17 45.907 17C45.9017 17 45.8964 17 45.8911 17C45.8857 17 45.8804 17 45.875 17C45.8696 17 45.8642 17 45.8588 17C45.8534 17 45.848 17 45.8426 17C45.8372 17 45.8317 17 45.8262 17C45.8208 17 45.8153 17 45.8098 17C45.8043 17 45.7988 17 45.7933 17C45.7878 17 45.7822 17 45.7767 17C45.7711 17 45.7656 17 45.76 17C45.7544 17 45.7488 17 45.7432 17C45.7376 17 45.732 17 45.7263 17C45.7207 17 45.715 17 45.7094 17C45.7037 17 45.698 17 45.6923 17C45.6866 17 45.6809 17 45.6752 17C45.6695 17 45.6637 17 45.658 17C45.6522 17 45.6465 17 45.6407 17C45.6349 17 45.6291 17 45.6233 17C45.6175 17 45.6117 17 45.6058 17C45.6 17 45.5941 17 45.5883 17C45.5824 17 45.5765 17 45.5706 17C45.5648 17 45.5588 17 45.5529 17C45.547 17 45.5411 17 45.5351 17C45.5292 17 45.5232 17 45.5173 17C45.5113 17 45.5053 17 45.4993 17C45.4933 17 45.4873 17 45.4813 17C45.4752 17 45.4692 17 45.4631 17C45.4571 17 45.451 17 45.4449 17C45.4389 17 45.4328 17 45.4267 17C45.4206 17 45.4145 17 45.4083 17C45.4022 17 45.3961 17 45.3899 17C45.3837 17 45.3776 17 45.3714 17C45.3652 17 45.359 17 45.3528 17C45.3466 17 45.3404 17 45.3342 17C45.3279 17 45.3217 17 45.3154 17C45.3092 17 45.3029 17 45.2966 17C45.2903 17 45.284 17 45.2777 17C45.2714 17 45.2651 17 45.2588 17C45.2525 17 45.2461 17 45.2398 17C45.2334 17 45.227 17 45.2207 17C45.2143 17 45.2079 17 45.2015 17C45.1951 17 45.1887 17 45.1823 17C45.1758 17 45.1694 17 45.1629 17C45.1565 17 45.15 17 45.1436 17C45.1371 17 45.1306 17 45.1241 17C45.1176 17 45.1111 17 45.1046 17C45.0981 17 45.0915 17 45.085 17C45.0785 17 45.0719 17 45.0653 17C45.0588 17 45.0522 17 45.0456 17C45.039 17 45.0324 17 45.0258 17C45.0192 17 45.0126 17 45.006 17C44.9993 17 44.9927 17 44.9861 17C44.9794 17 44.9727 17 44.9661 17C44.9594 17 44.9527 17 44.946 17C44.9393 17 44.9326 17 44.9259 17C44.9192 17 44.9124 17 44.9057 17C44.899 17 44.8922 17 44.8855 17C44.8787 17 44.8719 17 44.8652 17C44.8584 17 44.8516 17 44.8448 17C44.838 17 44.8312 17 44.8244 17C44.8175 17 44.8107 17 44.8039 17C44.797 17 44.7902 17 44.7833 17C44.7765 17 44.7696 17 44.7627 17C44.7558 17 44.7489 17 44.742 17C44.7351 17 44.7282 17 44.7213 17C44.7144 17 44.7075 17 44.7005 17C44.6936 17 44.6866 17 44.6797 17C44.6727 17 44.6658 17 44.6588 17C44.6518 17 44.6448 17 44.6378 17C44.6308 17 44.6238 17 44.6168 17C44.6098 17 44.6028 17 44.5957 17C44.5887 17 44.5817 17 44.5746 17C44.5676 17 44.5605 17 44.5534 17C44.5464 17 44.5393 17 44.5322 17C44.5251 17 44.518 17 44.5109 17C44.5038 17 44.4967 17 44.4896 17C44.4824 17 44.4753 17 44.4682 17C44.461 17 44.4539 17 44.4467 17C44.4396 17 44.4324 17 44.4252 17C44.418 17 44.4109 17 44.4037 17C44.3965 17 44.3893 17 44.3821 17C44.3749 17 44.3677 17 44.3604 17C44.3532 17 44.346 17 44.3387 17C44.3315 17 44.3242 17 44.317 17C44.3097 17 44.3025 17 44.2952 17C44.2879 17 44.2806 17 44.2734 17C44.2661 17 44.2588 17 44.2515 17C44.2442 17 44.2369 17 44.2295 17C44.2222 17 44.2149 17 44.2076 17C44.2002 17 44.1929 17 44.1855 17C44.1782 17 44.1708 17 44.1635 17C44.1561 17 44.1487 17 44.1413 17C44.134 17 44.1266 17 44.1192 17C44.1118 17 44.1044 17 44.097 17C44.0896 17 44.0822 17 44.0747 17C44.0673 17 44.0599 17 44.0524 17C44.045 17 44.0376 17 44.0301 17C44.0227 17 44.0152 17 44.0077 17C44.0003 17 43.9928 17 43.9853 17C43.9779 17 43.9704 17 43.9629 17C43.9554 17 43.9479 17 43.9404 17C43.9329 17 43.9254 17 43.9179 17C43.9104 17 43.9028 17 43.8953 17C43.8878 17 43.8802 17 43.8727 17C43.8652 17 43.8576 17 43.8501 17C43.8425 17 43.8349 17 43.8274 17C43.8198 17 43.8122 17 43.8047 17C43.7971 17 43.7895 17 43.7819 17C43.7743 17 43.7667 17 43.7591 17C43.7515 17 43.7439 17 43.7363 17C43.7287 17 43.7211 17 43.7134 17C43.7058 17 43.6982 17 43.6906 17C43.6829 17 43.6753 17 43.6676 17C43.66 17 43.6523 17 43.6447 17C43.637 17 43.6294 17 43.6217 17C43.614 17 43.6063 17 43.5987 17C43.591 17 43.5833 17 43.5756 17C43.5679 17 43.5602 17 43.5525 17C43.5448 17 43.5371 17 43.5294 17C43.5217 17 43.514 17 43.5063 17C43.4986 17 43.4909 17 43.4831 17C43.4754 17 43.4677 17 43.4599 17C43.4522 17 43.4445 17 43.4367 17C43.429 17 43.4212 17 43.4135 17C43.4057 17 43.3979 17 43.3902 17C43.3824 17 43.3746 17 43.3669 17C43.3591 17 43.3513 17 43.3435 17C43.3358 17 43.328 17 43.3202 17C43.3124 17 43.3046 17 43.2968 17C43.289 17 43.2812 17 43.2734 17C43.2656 17 43.2578 17 43.25 17C43.2422 17 43.2344 17 43.2265 17C43.2187 17 43.2109 17 43.2031 17C43.1952 17 43.1874 17 43.1796 17C43.1717 17 43.1639 17 43.1561 17C43.1482 17 43.1404 17 43.1325 17C43.1247 17 43.1168 17 43.109 17C43.1011 17 43.0933 17 43.0854 17C43.0775 17 43.0697 17 43.0618 17C43.0539 17 43.0461 17 43.0382 17C43.0303 17 43.0224 17 43.0146 17C43.0067 17 42.9988 17 42.9909 17C42.983 17 42.9751 17 42.9672 17C42.9593 17 42.9515 17 42.9436 17C42.9357 17 42.9278 17 42.9199 17C42.912 17 42.9041 17 42.8961 17C42.8882 17 42.8803 17 42.8724 17C42.8645 17 42.8566 17 42.8487 17C42.8408 17 42.8328 17 42.8249 17C42.817 17 42.8091 17 42.8012 17C42.7932 17 42.7853 17 42.7774 17C42.7694 17 42.7615 17 42.7536 17C42.7456 17 42.7377 17 42.7298 17C42.7218 17 42.7139 17 42.706 17C42.698 17 42.6901 17 42.6821 17C42.6742 17 42.6662 17 42.6583 17C42.6503 17 42.6424 17 42.6344 17C42.6265 17 42.6185 17 42.6106 17C42.6026 17 42.5947 17 42.5867 17C42.5788 17 42.5708 17 42.5629 17C42.5549 17 42.5469 17 42.539 17C42.531 17 42.523 17 42.5151 17C42.5071 17 42.4992 17 42.4912 17C42.4832 17 42.4753 17 42.4673 17C42.4593 17 42.4514 17 42.4434 17C42.4354 17 42.4275 17 42.4195 17C42.4115 17 42.4035 17 42.3956 17C42.3876 17 42.3796 17 42.3717 17C42.3637 17 42.3557 17 42.3477 17C42.3398 17 42.3318 17 42.3238 17C42.3158 17 42.3079 17 42.2999 17C42.2919 17 42.2839 17 42.276 17C42.268 17 42.26 17 42.252 17C42.2441 17 42.2361 17 42.2281 17C42.2201 17 42.2122 17 42.2042 17C42.1962 17 42.1882 17 42.1803 17C42.1723 17 42.1643 17 42.1563 17C42.1484 17 42.1404 17 42.1324 17C42.1244 17 42.1165 17 42.1085 17C42.1005 17 42.0926 17 42.0846 17C42.0766 17 42.0686 17 42.0607 17C42.0527 17 42.0447 17 42.0368 17C42.0288 17 42.0208 17 42.0129 17C42.0049 17 41.9969 17 41.989 17C41.981 17 41.973 17 41.9651 17C41.9571 17 41.9491 17 41.9412 17C41.9332 17 41.9253 17 41.9173 17C41.9093 17 41.9014 17 41.8934 17C41.8855 17 41.8775 17 41.8696 17C41.8616 17 41.8536 17 41.8457 17C41.8377 17 41.8298 17 41.8218 17C41.8139 17 41.8059 17 41.798 17C41.7901 17 41.7821 17 41.7742 17C41.7662 17 41.7583 17 41.7504 17C41.7424 17 41.7345 17 41.7265 17C41.7186 17 41.7107 17 41.7027 17C41.6948 17 41.6869 17 41.679 17C41.671 17 41.6631 17 41.6552 17C41.6473 17 41.6393 17 41.6314 17C41.6235 17 41.6156 17 41.6077 17C41.5998 17 41.5919 17 41.5839 17C41.576 17 41.5681 17 41.5602 17C41.5523 17 41.5444 17 41.5365 17C41.5286 17 41.5207 17 41.5128 17C41.5049 17 41.4971 17 41.4892 17C41.4813 17 41.4734 17 41.4655 17C41.4576 17 41.4498 17 41.4419 17C41.434 17 41.4261 17 41.4183 17C41.4104 17 41.4025 17 41.3947 17C41.3868 17 41.3789 17 41.3711 17C41.3632 17 41.3554 17 41.3475 17C41.3397 17 41.3318 17 41.324 17C41.3161 17 41.3083 17 41.3005 17C41.2926 17 41.2848 17 41.277 17C41.2691 17 41.2613 17 41.2535 17C41.2456 17 41.2378 17 41.23 17C41.2222 17 41.2144 17 41.2066 17C41.1988 17 41.191 17 41.1832 17C41.1754 17 41.1676 17 41.1598 17C41.152 17 41.1442 17 41.1364 17C41.1286 17 41.1209 17 41.1131 17C41.1053 17 41.0975 17 41.0898 17C41.082 17 41.0742 17 41.0665 17C41.0587 17 41.051 17 41.0432 17C41.0355 17 41.0277 17 41.02 17C41.0123 17 41.0045 17 40.9968 17C40.9891 17 40.9813 17 40.9736 17C40.9659 17 40.9582 17 40.9505 17C40.9428 17 40.935 17 40.9273 17C40.9196 17 40.9119 17 40.9043 17C40.8966 17 40.8889 17 40.8812 17C40.8735 17 40.8658 17 40.8582 17C40.8505 17 40.8428 17 40.8352 17C40.8275 17 40.8199 17 40.8122 17C40.8046 17 40.7969 17 40.7893 17C40.7816 17 40.774 17 40.7664 17C40.7587 17 40.7511 17 40.7435 17C40.7359 17 40.7283 17 40.7207 17C40.7131 17 40.7055 17 40.6979 17C40.6903 17 40.6827 17 40.6751 17C40.6675 17 40.66 17 40.6524 17C40.6448 17 40.6372 17 40.6297 17C40.6221 17 40.6146 17 40.607 17C40.5995 17 40.5919 17 40.5844 17C40.5769 17 40.5694 17 40.5618 17C40.5543 17 40.5468 17 40.5393 17C40.5318 17 40.5243 17 40.5168 17C40.5093 17 40.5018 17 40.4943 17C40.4868 17 40.4794 17 40.4719 17C40.4644 17 40.457 17 40.4495 17C40.4421 17 40.4346 17 40.4272 17C40.4197 17 40.4123 17 40.4049 17C40.3975 17 40.39 17 40.3826 17C40.3752 17 40.3678 17 40.3604 17C40.353 17 40.3456 17 40.3382 17C40.3308 17 40.3235 17 40.3161 17C40.3087 17 40.3014 17 40.294 17C40.2867 17 40.2793 17 40.272 17C40.2646 17 40.2573 17 40.25 17C40.2427 17 40.2353 17 40.228 17C40.2207 17 40.2134 17 40.2061 17C40.1988 17 40.1915 17 40.1843 17C40.177 17 40.1697 17 40.1625 17C40.1552 17 40.1479 17 40.1407 17C40.1335 17 40.1262 17 40.119 17C40.1118 17 40.1045 17 40.0973 17C40.0901 17 40.0829 17 40.0757 17C40.0685 17 40.0613 17 40.0541 17C40.047 17 40.0398 17 40.0326 17C40.0255 17 40.0183 17 40.0112 17C40.004 17 39.9969 17 39.9898 17C39.9826 17 39.9755 17 39.9684 17C39.9613 17 39.9542 17 39.9471 17C39.94 17 39.9329 17 39.9258 17C39.9188 17 39.9117 17 39.9046 17C39.8976 17 39.8905 17 39.8835 17C39.8765 17 39.8694 17 39.8624 17C39.8554 17 39.8484 17 39.8414 17C39.8344 17 39.8274 17 39.8204 17C39.8134 17 39.8064 17 39.7995 17C39.7925 17 39.7856 17 39.7786 17C39.7717 17 39.7647 17 39.7578 17C39.7509 17 39.744 17 39.7371 17C39.7301 17 39.7233 17 39.7164 17C39.7095 17 39.7026 17 39.6957 17C39.6889 17 39.682 17 39.6752 17C39.6683 17 39.6615 17 39.6547 17C39.6478 17 39.641 17 39.6342 17C39.6274 17 39.6206 17 39.6138 17C39.607 17 39.6003 17 39.5935 17C39.5867 17 39.58 17 39.5732 17C39.5665 17 39.5597 17 39.553 17C39.5463 17 39.5396 17 39.5329 17C39.5262 17 39.5195 17 39.5128 17C39.5061 17 39.4995 17 39.4928 17C39.4861 17 39.4795 17 39.4729 17C39.4662 17 39.4596 17 39.453 17C39.4464 17 39.4398 17 39.4332 17C39.4266 17 39.42 17 39.4134 17C39.4068 17 39.4003 17 39.3937 17C39.3872 17 39.3807 17 39.3741 17C39.3676 17 39.3611 17 39.3546 17C39.3481 17 39.3416 17 39.3351 17C39.3286 17 39.3222 17 39.3157 17C39.3092 17 39.3028 17 39.2964 17C39.2899 17 39.2835 17 39.2771 17C39.2707 17 39.2643 17 39.2579 17C39.2515 17 39.2452 17 39.2388 17C39.2324 17 39.2261 17 39.2197 17C39.2134 17 39.2071 17 39.2008 17C39.1945 17 39.1882 17 39.1819 17C39.1756 17 39.1693 17 39.163 17C39.1568 17 39.1505 17 39.1443 17C39.138 17 39.1318 17 39.1256 17C39.1194 17 39.1132 17 39.107 17C39.1008 17 39.0946 17 39.0885 17C39.0823 17 39.0761 17 39.07 17C39.0639 17 39.0577 17 39.0516 17C39.0455 17 39.0394 17 39.0333 17C39.0272 17 39.0212 17 39.0151 17C39.009 17 39.003 17 38.997 17C38.9909 17 38.9849 17 38.9789 17C38.9729 17 38.9669 17 38.9609 17C38.9549 17 38.949 17 38.943 17C38.9371 17 38.9311 17 38.9252 17C38.9193 17 38.9133 17 38.9074 17C38.9015 17 38.8957 17 38.8898 17C38.8839 17 38.8781 17 38.8722 17C38.8664 17 38.8605 17 38.8547 17C38.8489 17 38.8431 17 38.8373 17C38.8315 17 38.8257 17 38.82 17C38.8142 17 38.8085 17 38.8027 17C38.797 17 38.7913 17 38.7856 17C38.7799 17 38.7742 17 38.7685 17C38.7628 17 38.7572 17 38.7515 17C38.7459 17 38.7402 17 38.7346 17C38.729 17 38.7234 17 38.7178 17C38.7122 17 38.7066 17 38.7011 17C38.6955 17 38.69 17 38.6844 17C38.6789 17 38.6734 17 38.6679 17C38.6624 17 38.6569 17 38.6514 17C38.6459 17 38.6405 17 38.635 17C38.6296 17 38.6242 17 38.6188 17C38.6134 17 38.608 17 38.6026 17C38.5972 17 38.5918 17 38.5865 17C38.5811 17 38.5758 17 38.5705 17C38.5652 17 38.5598 17 38.5546 17C38.5493 17 38.544 17 38.5387 17C38.5335 17 38.5282 17 38.523 17C38.5178 17 38.5126 17 38.5074 17C38.5022 17 38.497 17 38.4918 17C38.4867 17 38.4815 17 38.4764 17C38.4713 17 38.4662 17 38.4611 17C38.456 17 38.4509 17 38.4458 17C38.4407 17 38.4357 17 38.4306 17C38.4256 17 38.4206 17 38.4156 17C38.4106 17 38.4056 17 38.4006 17C38.3957 17 38.3907 17 38.3858 17C38.3808 17 38.3759 17 38.371 17C38.3661 17 38.3612 17 38.3563 17C38.3515 17 38.3466 17 38.3418 17C38.3369 17 38.3321 17 38.3273 17C38.3225 17 38.3177 17 38.313 17C38.3082 17 38.3034 17 38.2987 17C38.294 17 38.2892 17 38.2845 17C38.2798 17 38.2751 17 38.2705 17C38.2658 17 38.2612 17 38.2565 17C38.2519 17 38.2473 17 38.2427 17C38.2381 17 38.2335 17 38.2289 17C38.2244 17 38.2198 17 38.2153 17C38.2108 17 38.2063 17 38.2018 17C38.1973 17 38.1928 17 38.1883 17C38.1839 17 38.1794 17 38.175 17C38.1706 17 38.1662 17 38.1618 17C38.1574 17 38.153 17 38.1487 17C38.1443 17 38.14 17 38.1357 17C38.1314 17 38.1271 17 38.1228 17C38.1185 17 38.1143 17 38.11 17C38.1058 17 38.1016 17 38.0973 17C38.0931 17 38.089 17 38.0848 17C38.0806 17 38.0765 17 38.0723 17C38.0682 17 38.0641 17 38.06 17C38.0559 17 38.0518 17 38.0478 17C38.0437 17 38.0397 17 38.0357 17C38.0316 17 38.0276 17 38.0236 17C38.0197 17 38.0157 17 38.0118 17C38.0078 17 38.0039 17 38 17V19ZM34 51C34 52.1542 34.2892 53.2034 35.0429 53.9571C35.7966 54.7108 36.8458 55 38 55L38 53C37.1541 53 36.7034 52.7892 36.4571 52.5429C36.2108 52.2966 36 51.8458 36 51H34ZM38 55C39 55 41.25 55 43.25 55C44.25 55 45.1875 55 45.875 55C46.2187 55 46.5 55 46.6953 55C46.793 55 46.8691 55 46.9209 55C46.9468 55 46.9666 55 46.9799 55C46.9865 55 46.9915 55 46.9949 55C46.9966 55 46.9979 55 46.9987 55C46.9991 55 46.9995 55 46.9997 55C46.9998 55 46.9999 55 46.9999 55C47 55 47 55 47 54C47 53 47 53 46.9999 53C46.9999 53 46.9998 53 46.9997 53C46.9995 53 46.9991 53 46.9987 53C46.9979 53 46.9966 53 46.9949 53C46.9915 53 46.9865 53 46.9799 53C46.9666 53 46.9468 53 46.9209 53C46.8691 53 46.793 53 46.6953 53C46.5 53 46.2187 53 45.875 53C45.1875 53 44.25 53 43.25 53C41.25 53 39 53 38 53L38 55Z" fill="#065398"/>
    <rect x="61" y="11" width="14" height="14" transform="rotate(90 61 11)" stroke="#065398" stroke-width="2"/>
    <rect x="25" y="11" width="50" height="14" transform="rotate(90 25 11)" stroke="#065398" stroke-width="2"/>
    <rect x="61" y="29" width="14" height="14" transform="rotate(90 61 29)" stroke="#065398" stroke-width="2"/>
    <rect x="62" y="46" width="16" height="16" transform="rotate(90 62 46)" fill="#065398"/>
</svg>
