<svg width="72" height="72" viewBox="0 0 72 72" fill="none" xmlns="http://www.w3.org/2000/svg">
    <path d="M18 39H31C31 39 37.4999 39 37.4999 44C37.4999 49 31 49 31 49H24C24 49 18.0001 49 18 54.25C18 59 24 59 24 59H50.5" stroke="#065398" stroke-width="2"/>
    <path fill-rule="evenodd" clip-rule="evenodd" d="M26 19.6667C26 21.1357 25.5447 22.8595 24.7551 24.7042C23.9735 26.5302 22.9153 28.3578 21.8306 30.0018C20.815 31.5411 19.796 32.8894 19 33.887C18.204 32.8894 17.185 31.5411 16.1694 30.0018C15.0847 28.3578 14.0265 26.5302 13.2449 24.7042C12.4553 22.8595 12 21.1357 12 19.6667C12 16.0552 15.0622 13 19 13C22.9378 13 26 16.0552 26 19.6667ZM28 19.6667C28 25.2817 22.7992 32.3762 20.3046 35.4562C19.5176 36.4279 19 37 19 37C19 37 18.4824 36.4279 17.6954 35.4562C15.2008 32.3762 10 25.2817 10 19.6667C10 14.8802 14.0294 11 19 11C23.9706 11 28 14.8802 28 19.6667ZM19 24C21.2091 24 23 22.2091 23 20C23 17.7909 21.2091 16 19 16C16.7909 16 15 17.7909 15 20C15 22.2091 16.7909 24 19 24Z" fill="#065398"/>
    <path fill-rule="evenodd" clip-rule="evenodd" d="M52 58C52 58 62 46.5228 62 38C62 32.4772 57.5228 28 52 28C46.4772 28 42 32.4772 42 38C42 46.5228 52 58 52 58ZM52 43C54.7614 43 57 40.7614 57 38C57 35.2386 54.7614 33 52 33C49.2386 33 47 35.2386 47 38C47 40.7614 49.2386 43 52 43Z" fill="#065398"/>
</svg>
