<svg width="72" height="72" viewBox="0 0 72 72" fill="none" xmlns="http://www.w3.org/2000/svg">
    <g clip-path="url(#clip0)">
        <path d="M29.9264 32.4492C29.5512 32.8244 29.5512 33.4351 29.9264 33.814C30.3017 34.1892 30.9123 34.1892 31.2912 33.814C33.8884 31.2168 38.1153 31.2168 40.7125 33.814C40.9001 34.0016 41.1466 34.0972 41.393 34.0972C41.6395 34.0972 41.886 34.0016 42.0736 33.814C42.4488 33.4387 42.4488 32.8281 42.0736 32.4492C38.726 29.0978 33.2741 29.0978 29.9264 32.4492Z" fill="#065398"/>
        <path d="M32.5309 35.0536C32.1557 35.4289 32.1557 36.0395 32.5309 36.4184C32.9062 36.7937 33.5168 36.7937 33.8957 36.4184C35.0545 35.256 36.9454 35.256 38.1042 36.4184C38.2918 36.606 38.5383 36.7017 38.7848 36.7017C39.0312 36.7017 39.2777 36.606 39.4653 36.4184C39.8406 36.0432 39.8406 35.4325 39.4653 35.0573C37.5561 33.1407 34.4439 33.1407 32.5309 35.0536Z" fill="#065398"/>
        <path d="M36.0002 39.803C36.7092 39.803 37.2841 39.2282 37.2841 38.5191C37.2841 37.81 36.7092 37.2352 36.0002 37.2352C35.2911 37.2352 34.7163 37.81 34.7163 38.5191C34.7163 39.2282 35.2911 39.803 36.0002 39.803Z" fill="#065398"/>
        <path d="M44.7186 29.8005C39.9105 24.996 32.0895 24.996 27.2814 29.8005C26.9062 30.1757 26.9062 30.7864 27.2814 31.1653C27.6567 31.5405 28.2673 31.5405 28.6462 31.1653C32.7002 27.1076 39.2998 27.1076 43.3575 31.1653C43.5451 31.3529 43.7915 31.4485 44.038 31.4485C44.2845 31.4485 44.531 31.3529 44.7186 31.1653C45.0938 30.79 45.0938 30.1794 44.7186 29.8005Z" fill="#065398"/>
    </g>
    <path fill-rule="evenodd" clip-rule="evenodd" d="M21 15C21 13.3431 22.3431 12 24 12H48C49.6569 12 51 13.3431 51 15V57C51 58.6569 49.6569 60 48 60H24C22.3431 60 21 58.6569 21 57V15ZM23 16C23 14.8954 23.8954 14 25 14H47C48.1046 14 49 14.8954 49 16V50C49 51.1046 48.1046 52 47 52H25C23.8954 52 23 51.1046 23 50V16ZM36 58C37.1046 58 38 57.1046 38 56C38 54.8954 37.1046 54 36 54C34.8954 54 34 54.8954 34 56C34 57.1046 34.8954 58 36 58Z" fill="#065398"/>
    <defs>
        <clipPath id="clip0">
            <rect width="18" height="18" fill="white" transform="translate(27 24)"/>
        </clipPath>
    </defs>
</svg>
